STARTFONT 2.1
FONT -FontForge-Monoton-Book-R-Normal--28-280-72-72-P-189-ISO10646-1
SIZE 28 72 72
FONTBOUNDINGBOX 52 43 -4 -11
COMMENT "Generated by fontforge, http://fontforge.sourceforge.net"
COMMENT "Copyright (c) 2011 by vernon adams. All rights reserved."
STARTPROPERTIES 40
FOUNDRY "FontForge"
FAMILY_NAME "Monoton"
WEIGHT_NAME "Book"
SLANT "R"
SETWIDTH_NAME "Normal"
ADD_STYLE_NAME ""
PIXEL_SIZE 28
POINT_SIZE 280
RESOLUTION_X 72
RESOLUTION_Y 72
SPACING "P"
AVERAGE_WIDTH 189
CHARSET_REGISTRY "ISO10646"
CHARSET_ENCODING "1"
FONTNAME_REGISTRY ""
CHARSET_COLLECTIONS "ISO8859-2 ISO8859-9 ISO8859-4 ISO10646-1"
FONT_NAME "Monoton-Regular"
FACE_NAME "Monoton"
COPYRIGHT "Copyright (c) 2011 by vernon adams. All rights reserved."
FONT_VERSION "1.000"
FONT_ASCENT 22
FONT_DESCENT 6
UNDERLINE_POSITION -1
UNDERLINE_THICKNESS 1
X_HEIGHT 19
CAP_HEIGHT 22
DEFAULT_CHAR 1
RAW_ASCENT 799
RAW_DESCENT 200
NORM_SPACE 3
RELATIVE_WEIGHT 40
RELATIVE_SETWIDTH 50
SUPERSCRIPT_X 0
SUPERSCRIPT_Y 9
SUPERSCRIPT_SIZE 16
SUBSCRIPT_X 0
SUBSCRIPT_Y 2
SUBSCRIPT_SIZE 16
AVG_LOWERCASE_WIDTH 202
AVG_UPPERCASE_WIDTH 221
ENDPROPERTIES
CHARS 372
STARTCHAR glyph1.dup1
ENCODING 0
SWIDTH 108 0
DWIDTH 3 0
BBX 1 1 0 0
BITMAP
00
ENDCHAR
STARTCHAR uni0002
ENCODING 2
SWIDTH 108 0
DWIDTH 3 0
BBX 1 1 0 0
BITMAP
00
ENDCHAR
STARTCHAR uni0009
ENCODING 9
SWIDTH 108 0
DWIDTH 3 0
BBX 1 1 0 0
BITMAP
00
ENDCHAR
STARTCHAR uni000A
ENCODING 10
SWIDTH 108 0
DWIDTH 3 0
BBX 1 1 0 0
BITMAP
00
ENDCHAR
STARTCHAR uni000D
ENCODING 13
SWIDTH 108 0
DWIDTH 3 0
BBX 1 1 0 0
BITMAP
00
ENDCHAR
STARTCHAR space
ENCODING 32
SWIDTH 108 0
DWIDTH 3 0
BBX 1 1 0 0
BITMAP
00
ENDCHAR
STARTCHAR exclam
ENCODING 33
SWIDTH 336 0
DWIDTH 9 0
BBX 7 24 1 -1
BITMAP
AA
AA
AA
AA
AA
AA
AA
AA
AA
AA
AA
AA
AA
AA
AA
AA
AA
00
00
FE
00
FE
00
FE
ENDCHAR
STARTCHAR quotedbl
ENCODING 34
SWIDTH 538 0
DWIDTH 15 0
BBX 13 9 1 14
BITMAP
A8A8
A8A8
A8A8
A8A8
A8A8
A8A8
A8A8
A8A8
A8A8
ENDCHAR
STARTCHAR numbersign
ENCODING 35
SWIDTH 1014 0
DWIDTH 28 0
BBX 27 26 1 -2
BITMAP
00541500
00541500
00A82A00
00A82A00
00A82A00
0EAFABE0
01505400
1F57D5C0
01505400
3D5F57C0
02A0A800
02A0A800
02A0A800
02A0A800
05415000
05415000
05415000
757D5F00
0A82A000
FABEAE00
0A82A000
EAFABE00
15054000
15054000
15054000
150D4000
ENDCHAR
STARTCHAR dollar
ENCODING 36
SWIDTH 686 0
DWIDTH 19 0
BBX 18 31 1 -4
BITMAP
024000
024000
024000
00C000
0E1E00
30E300
6F1CC0
59C300
961E00
A8E000
AA1800
AA0000
ABF000
AC0C00
57F200
581900
27E580
181A80
0FEA80
002A80
002A80
0FEA80
181A80
47E580
B81900
C7F200
380C00
0FF000
022000
024000
024000
ENDCHAR
STARTCHAR percent
ENCODING 37
SWIDTH 1504 0
DWIDTH 42 0
BBX 40 26 1 -2
BITMAP
0180000000
0E700D4000
11880A8000
2E740A8000
599A0A8000
D66B168000
ADB5150000
ABD5150000
AA551503C0
AA55290C38
ABD52A13CC
A42D2A2636
53CA2A59CA
4C1656562D
27E454AD95
181854AB55
07E054AA75
0000A8AA55
0000A8A9D5
0000A85425
0000A85BCA
0001502C12
00015033E4
0001500C18
00015003E0
0002A00000
ENDCHAR
STARTCHAR ampersand
ENCODING 38
SWIDTH 1029 0
DWIDTH 29 0
BBX 27 23 1 0
BITMAP
01FE5500
0E005500
11FE5500
2E005500
59FE5500
D6005500
ADFE5500
AA005500
AA005500
ABFF55E0
AC005500
57FF55E0
56005500
A9FF55E0
AA005500
AA005500
ABFF55C0
B4005600
53FF4BC0
6C002C00
37FF13C0
18000C00
07FF03C0
ENDCHAR
STARTCHAR quotesingle
ENCODING 39
SWIDTH 257 0
DWIDTH 7 0
BBX 5 9 1 14
BITMAP
A8
A8
A8
A8
A8
A8
A8
A8
A8
ENDCHAR
STARTCHAR parenleft
ENCODING 40
SWIDTH 410 0
DWIDTH 12 0
BBX 10 26 1 -2
BITMAP
01C0
0E00
19C0
2700
49C0
5600
B5C0
AB00
AA00
AA00
AA00
AA00
AA00
AA00
AA00
AA00
AA00
AA00
AA00
A9C0
5400
5BC0
2C00
33C0
0C00
03C0
ENDCHAR
STARTCHAR parenright
ENCODING 41
SWIDTH 408 0
DWIDTH 11 0
BBX 9 26 1 -2
BITMAP
C000
3800
E600
3B00
CD00
3680
CA80
2A80
1A80
1680
1680
1680
1680
1680
1680
1680
1680
1680
2A80
EA80
1280
E500
1900
F600
0C00
F000
ENDCHAR
STARTCHAR asterisk
ENCODING 42
SWIDTH 664 0
DWIDTH 19 0
BBX 17 17 1 3
BITMAP
02A000
02A000
22A200
32AC00
4EB900
32A600
DC9980
66E600
19DC00
33E600
CCB300
B2AC80
66B300
1AAC00
22A600
02A000
02A000
ENDCHAR
STARTCHAR plus
ENCODING 43
SWIDTH 601 0
DWIDTH 17 0
BBX 15 13 1 5
BITMAP
0AA0
0AA0
0AA0
0AA0
FABE
0AA0
FABE
0AA0
FABE
0AA0
0AA0
0AA0
0AA0
ENDCHAR
STARTCHAR comma
ENCODING 44
SWIDTH 252 0
DWIDTH 7 0
BBX 5 9 1 -4
BITMAP
A8
A8
A8
A8
28
28
C8
10
E0
ENDCHAR
STARTCHAR hyphen
ENCODING 45
SWIDTH 473 0
DWIDTH 13 0
BBX 11 5 1 9
BITMAP
FFE0
0000
FFE0
0000
FFE0
ENDCHAR
STARTCHAR period
ENCODING 46
SWIDTH 255 0
DWIDTH 7 0
BBX 5 5 1 0
BITMAP
F8
00
F8
00
F8
ENDCHAR
STARTCHAR slash
ENCODING 47
SWIDTH 447 0
DWIDTH 13 0
BBX 11 26 1 -3
BITMAP
02A0
02A0
0540
0540
0540
0540
0A80
0A80
0A80
0A80
1500
1500
1500
1500
2A00
2A00
2A00
2A00
5400
5400
5400
5400
A800
A800
A800
A800
ENDCHAR
STARTCHAR zero
ENCODING 48
SWIDTH 843 0
DWIDTH 24 0
BBX 22 25 1 -1
BITMAP
003800
038F00
0C3180
1B8E40
3671A0
29CED0
5A3350
54CDA8
A502A8
AA02A8
AA0154
AA0154
AA0154
AA0154
AA0154
AA02DC
A902A8
5584A8
52F948
2B0650
24FCB0
130360
0CFCC0
070300
00FC00
ENDCHAR
STARTCHAR one
ENCODING 49
SWIDTH 426 0
DWIDTH 12 0
BBX 10 23 1 0
BITMAP
FFC0
0000
FFC0
0000
FFC0
1540
1540
1540
1540
1540
1540
1540
1540
1540
1540
1540
1540
1540
1540
1540
1540
1540
1540
ENDCHAR
STARTCHAR two
ENCODING 50
SWIDTH 583 0
DWIDTH 16 0
BBX 15 24 1 0
BITMAP
0C00
F1E0
1F10
E1C8
1E24
E1D4
1E54
61AA
00AE
0154
0354
02A8
0568
0A50
1AA0
1520
2B40
5A80
D500
FFF8
0000
FFF8
0000
FFF8
ENDCHAR
STARTCHAR three
ENCODING 51
SWIDTH 612 0
DWIDTH 17 0
BBX 15 25 1 -1
BITMAP
0F00
F0E0
0F18
F1EC
1F34
E0DA
1F2A
61AA
00AA
1FAA
00EA
1F9A
00EC
1F14
00CA
1F2A
00AA
40AA
7FAA
804A
7F94
8064
7F98
8070
7F80
ENDCHAR
STARTCHAR four
ENCODING 52
SWIDTH 622 0
DWIDTH 17 0
BBX 16 23 1 0
BITMAP
02B4
06A8
0568
0550
0A50
0AB0
16A0
1520
2D40
2A40
4A94
5694
D514
AD14
FFFF
0000
FFFF
0000
FFFF
0000
0014
0014
0014
ENDCHAR
STARTCHAR five
ENCODING 53
SWIDTH 691 0
DWIDTH 19 0
BBX 18 24 1 -1
BITMAP
7FFF00
000000
7FFF00
000000
7FFF00
680000
680000
680000
6BF000
680C00
6BF300
680D00
6BF680
680A80
6BEAC0
001540
003540
0FEA80
181A80
4FE480
B81900
CFE600
301C00
0FE000
ENDCHAR
STARTCHAR six
ENCODING 54
SWIDTH 781 0
DWIDTH 22 0
BBX 20 25 1 -1
BITMAP
007000
078F00
08F0C0
338F60
2CF180
5B8F00
547800
AD8C00
AA0000
AAFE00
AB0180
AAFEC0
AA0120
AAFCA0
AA0250
AAFD50
AA0550
AB0550
B5F950
5606D0
49F9A0
260360
19FCC0
0E0300
01FC00
ENDCHAR
STARTCHAR seven
ENCODING 55
SWIDTH 631 0
DWIDTH 18 0
BBX 16 23 1 0
BITMAP
FF55
0055
FFBD
00AA
FEAA
00AA
016A
0154
0154
0154
03D4
02A8
02A8
02A8
07A8
0550
0550
0550
0D50
0AA0
0AA0
0AA0
1FE0
ENDCHAR
STARTCHAR eight
ENCODING 56
SWIDTH 808 0
DWIDTH 23 0
BBX 21 25 1 -1
BITMAP
01F800
0E0780
10FCC0
260720
59F890
D60650
ADF950
AA06A8
AA02A8
ABFCA8
A403D0
53FC50
4C0320
77FC90
B80350
AFFD28
AA06A8
AA02A8
A9FDA8
B40350
53FED0
6C01A0
33FE60
1C0180
03FE00
ENDCHAR
STARTCHAR nine
ENCODING 57
SWIDTH 782 0
DWIDTH 22 0
BBX 20 25 1 -1
BITMAP
00E000
0F1E00
18C100
271CC0
58E340
971DA0
ACF2A0
AB0950
AA0550
AA1550
ADE550
D71550
58E550
27F550
180550
07F550
000550
000950
03F2A0
0C0CA0
13F960
4C0640
33F980
1C0600
03F800
ENDCHAR
STARTCHAR colon
ENCODING 58
SWIDTH 262 0
DWIDTH 7 0
BBX 5 13 1 4
BITMAP
F8
00
F8
00
F8
00
00
00
F8
00
F8
00
F8
ENDCHAR
STARTCHAR semicolon
ENCODING 59
SWIDTH 261 0
DWIDTH 7 0
BBX 5 17 1 0
BITMAP
F8
00
F8
00
F8
00
00
00
A8
A8
A8
A8
28
28
C8
10
E0
ENDCHAR
STARTCHAR less
ENCODING 60
SWIDTH 670 0
DWIDTH 19 0
BBX 17 21 1 1
BITMAP
000080
000380
001C80
006380
038C00
0C7380
718E00
8E7180
31CE00
CE3000
39C000
C66000
3B9C00
CCE300
E31C80
18E700
071880
00E700
003880
000700
000180
ENDCHAR
STARTCHAR equal
ENCODING 61
SWIDTH 473 0
DWIDTH 13 0
BBX 11 13 1 4
BITMAP
FFE0
0000
FFE0
0000
FFE0
0000
0000
0000
FFE0
0000
FFE0
0000
FFE0
ENDCHAR
STARTCHAR greater
ENCODING 62
SWIDTH 670 0
DWIDTH 19 0
BBX 17 21 1 1
BITMAP
800000
E00000
9C0000
E70000
18E000
C73800
38C700
C73980
39C700
0F3880
00E700
071880
1CE300
E31C80
9C6380
639C00
9C7000
738000
8C0000
700000
800000
ENDCHAR
STARTCHAR question
ENCODING 63
SWIDTH 693 0
DWIDTH 19 0
BBX 18 24 1 0
BITMAP
03C000
3C3800
63C600
9C7B00
61CD00
1C3280
03CA80
0C2540
001540
003540
2ACA80
2A3280
2AC580
2A3900
2AC600
2AF800
2A0000
2A0000
000000
7E0000
000000
7E0000
000000
7E0000
ENDCHAR
STARTCHAR at
ENCODING 64
SWIDTH 1076 0
DWIDTH 30 0
BBX 28 27 1 -2
BITMAP
00060000
00F9F000
03861C00
0670E600
098F1900
1270E680
24801B40
2B070D20
5A38C6A0
54473290
B490D150
A9A76950
A958A950
A950A950
A950A950
A958A950
A8A7A950
949FAF50
5460D0D0
5A3F4FB0
29002060
34C01FC0
1B3F8000
0DC00000
063FC000
01C00000
007FC000
ENDCHAR
STARTCHAR A
ENCODING 65
SWIDTH 936 0
DWIDTH 26 0
BBX 26 23 0 0
BITMAP
006A8000
006A8000
006B4000
00954000
00B54000
017AA000
014AA000
015AD000
02A55000
02AD5000
05ACA800
0552A800
0552B400
0AD15400
0AA15400
12BF2A00
1540AA00
155FA900
2B605500
2ABFD500
6A805A80
55002A80
D5002FC0
ENDCHAR
STARTCHAR B
ENCODING 66
SWIDTH 862 0
DWIDTH 24 0
BBX 22 23 1 0
BITMAP
FFFF00
8001C0
BFFF30
A001D8
AFFE68
A801A4
ABFE54
AA0154
AA0154
AAFF54
AA00D4
AAFFA8
AA01A4
AAFE54
AA0154
AA0154
AAFF54
AA0094
AAFF28
AA00C8
AAFF90
AA0060
AAFF80
ENDCHAR
STARTCHAR C
ENCODING 67
SWIDTH 852 0
DWIDTH 24 0
BBX 22 25 1 -1
BITMAP
003800
01E780
061860
09C790
131C48
24E324
6B3CD8
56E360
D580A0
A90080
AA0000
AA0000
AA0000
AA0000
AA0000
AA0000
B50080
54C320
4B7E58
2D81B4
167E6C
1981D8
047E20
0381C0
007E00
ENDCHAR
STARTCHAR D
ENCODING 68
SWIDTH 886 0
DWIDTH 25 0
BBX 23 23 1 0
BITMAP
FFFC00
800380
BFFC60
A003B0
AFFCD8
A80328
ABFCB4
AA0254
AA0156
AA01AA
AA00AA
AA00AA
AA00AA
AA00AA
AA015A
AA0354
ABFE94
A801A8
AFFE48
A00190
BFFF20
8000C0
FFFF00
ENDCHAR
STARTCHAR E
ENCODING 69
SWIDTH 706 0
DWIDTH 20 0
BBX 18 23 1 0
BITMAP
ABFFC0
AA0000
ABFFC0
AA0000
ABFFC0
AA0000
AA0000
AA0000
AA0000
ABF800
AA0000
ABF800
AA0000
ABF800
AA0000
AA0000
AA0000
AA0000
ABFFC0
AA0000
ABFFC0
AA0000
ABFFC0
ENDCHAR
STARTCHAR F
ENCODING 70
SWIDTH 683 0
DWIDTH 19 0
BBX 17 23 1 0
BITMAP
ABFF80
AA0000
ABFF80
AA0000
ABFF80
AA0000
AA0000
AA0000
AA0000
AA0000
ABFF80
AA0000
ABFF80
AA0000
ABFF80
AA0000
AA0000
AA0000
AA0000
AA0000
AA0000
AA0000
AA0000
ENDCHAR
STARTCHAR G
ENCODING 71
SWIDTH 908 0
DWIDTH 25 0
BBX 23 25 1 -1
BITMAP
003800
01E780
061860
09C790
131C48
24E324
6B3CD8
56E360
D580A0
A90080
AA0000
AA0000
AA00AA
AA00AA
AA00AA
AA00AA
A500AA
5480AA
5A7FAA
2D80AA
367FAA
1980AA
0C7FAA
0380AA
00FF00
ENDCHAR
STARTCHAR H
ENCODING 72
SWIDTH 901 0
DWIDTH 25 0
BBX 23 23 1 0
BITMAP
AA00AA
AA00AA
AA00AA
AA00AA
AA00AA
AA00AA
AA00AA
AA00AA
AA00AA
ABFFAA
AA00AA
ABFFAA
AA00AA
ABFFAA
AA00AA
AA00AA
AA00AA
AA00AA
AA00AA
AA00AA
AA00AA
AA00AA
AA00AA
ENDCHAR
STARTCHAR I
ENCODING 73
SWIDTH 338 0
DWIDTH 9 0
BBX 7 23 1 0
BITMAP
AA
AA
AA
AA
AA
AA
AA
AA
AA
AA
AA
AA
AA
AA
AA
AA
AA
AA
AA
AA
AA
AA
AA
ENDCHAR
STARTCHAR J
ENCODING 74
SWIDTH 434 0
DWIDTH 12 0
BBX 10 24 1 -1
BITMAP
1540
1540
1540
1540
1540
1540
1540
1540
1540
1540
1540
1540
1540
1540
1540
1540
1540
EB40
1A80
E480
0D00
F200
0C00
F000
ENDCHAR
STARTCHAR K
ENCODING 75
SWIDTH 815 0
DWIDTH 23 0
BBX 21 23 1 0
BITMAP
AA06A8
AA0548
AA0D50
AA0A90
AA1AA0
AA1520
AA2540
AA2AC0
AA4A80
AA5580
AA9500
AAAB00
AAA500
AA5500
AA5280
AA2A80
AA2D40
AA1540
AA16A0
AA0AA0
AA0B50
AA0550
AA07A8
ENDCHAR
STARTCHAR L
ENCODING 76
SWIDTH 604 0
DWIDTH 17 0
BBX 15 23 1 0
BITMAP
AA00
AA00
AA00
AA00
AA00
AA00
AA00
AA00
AA00
AA00
AA00
AA00
AA00
AA00
AA00
AA00
AA00
AA00
ABFE
AA00
ABFE
AA00
ABFE
ENDCHAR
STARTCHAR M
ENCODING 77
SWIDTH 920 0
DWIDTH 26 0
BBX 23 23 1 0
BITMAP
B4002A
D4004A
EA0056
AB00B6
B500AA
B5816A
BA8156
AAC29A
A542AA
AD253A
AAAD5A
AA9ADA
A9529A
AB6DDA
AAA95A
AAB65A
AA565A
AA005A
AA005A
AA005A
AA005A
AA005A
AA005A
ENDCHAR
STARTCHAR N
ENCODING 78
SWIDTH 877 0
DWIDTH 25 0
BBX 22 23 1 0
BITMAP
D50154
D28154
AA4154
AD4154
95A154
BAB154
AB5154
A54954
ACA954
AA9554
AB5754
AB6AD4
AAAD54
AAD554
AA52B4
AA2AD4
AA2D54
AA15B4
AA1AAC
AA0B54
AA054C
AA04AC
AA02F4
ENDCHAR
STARTCHAR O
ENCODING 79
SWIDTH 933 0
DWIDTH 26 0
BBX 24 25 1 -1
BITMAP
001800
01E780
061860
09C390
131C48
24E334
6B3CD2
56E76A
D581AD
A900D5
AA0055
AA0055
AA0055
AA0055
AA0055
AA0055
B500B5
54C12A
4B7E5A
2D81B4
167E6C
198198
047E20
0381C0
007E00
ENDCHAR
STARTCHAR P
ENCODING 80
SWIDTH 850 0
DWIDTH 24 0
BBX 22 23 1 0
BITMAP
FFFE00
8001C0
BFFE60
A00190
AFFE48
A801A8
ABFEB4
AA0354
AA0154
AA0154
AAFF54
AA00AC
AAFF28
AA00D8
AAFFB0
AA0060
AAFF80
AA0000
AA0000
AA0000
AA0000
AA0000
AA0000
ENDCHAR
STARTCHAR Q
ENCODING 81
SWIDTH 937 0
DWIDTH 26 0
BBX 24 27 1 -3
BITMAP
001800
01E780
061860
09C390
131C48
24E334
6B3CD2
56E76A
D581AD
A900D5
AA0055
AA0055
AA0055
AA0155
AA0555
AA1755
B50AB5
54C92A
4B7E5A
2D81B4
167E6C
198198
047E28
0381D4
007E54
000048
000020
ENDCHAR
STARTCHAR R
ENCODING 82
SWIDTH 843 0
DWIDTH 24 0
BBX 22 23 1 0
BITMAP
FFFE00
8001C0
BFFE60
A00190
AFFE48
A801A8
ABFEA4
AA0354
AA0154
AA0354
AAFEAC
AA01A8
AAFE48
AA0190
AAFE20
AA01C0
AAFF40
AA0BE0
AA0AA0
AA0AA0
AA0550
AA0550
AA0550
ENDCHAR
STARTCHAR S
ENCODING 83
SWIDTH 682 0
DWIDTH 19 0
BBX 17 25 1 -1
BITMAP
00C000
0E1E00
30E300
6E1C80
59C300
B61C00
A9E000
AA1800
AA0000
ABF000
AC1C00
D7E200
581900
27E500
181280
0FEA80
002A80
002A80
0FEA80
181280
47E500
B81900
C7E200
300C00
0FF000
ENDCHAR
STARTCHAR T
ENCODING 84
SWIDTH 591 0
DWIDTH 17 0
BBX 15 23 1 0
BITMAP
FFFE
0000
FFFE
0000
FFFE
0AA0
0AA0
0AA0
0AA0
0AA0
0AA0
0AA0
0AA0
0AA0
0AA0
0AA0
0AA0
0AA0
0AA0
0AA0
0AA0
0AA0
0AA0
ENDCHAR
STARTCHAR U
ENCODING 85
SWIDTH 905 0
DWIDTH 25 0
BBX 23 24 1 -1
BITMAP
AA00AA
AA00AA
AA00AA
AA00AA
AA00AA
AA00AA
AA00AA
AA00AA
AA00AA
AA00AA
AA00AA
AA00AA
AA00AA
AA00AA
AA00AA
A5012A
548356
5A7C94
29832C
367E48
1B8190
0CFE60
030180
00FE00
ENDCHAR
STARTCHAR V
ENCODING 86
SWIDTH 940 0
DWIDTH 26 0
BBX 26 23 0 0
BITMAP
D5002D40
55002A80
52802A80
2A805480
2AC05500
1540B500
1540AA00
14A0AA00
0AA15200
0AA15400
05525400
0552A800
052AA800
02AD6800
02A55000
035D5000
015AA000
014AA000
00B5A000
00954000
00F54000
006A8000
006A8000
ENDCHAR
STARTCHAR W
ENCODING 87
SWIDTH 1161 0
DWIDTH 33 0
BBX 31 23 1 0
BITMAP
AA0AA0AA
AA1561AA
AA156154
AB155154
55355154
552AD2F4
552AD2A8
52AAAAA8
2AD7AAA8
2AD5AD58
2A55A550
15555550
15AB5550
15AB5AA0
14AB6AA0
0AAAAAA0
0B54AAA0
0B54B540
0954D540
07545540
06A87540
06A86A80
06A82A80
ENDCHAR
STARTCHAR X
ENCODING 88
SWIDTH 876 0
DWIDTH 25 0
BBX 24 23 0 0
BITMAP
D581AB
5A8152
2B42D4
3566AC
16A568
0A9B50
095AB0
0554A0
02A540
02AA40
015280
01D500
00ADC0
016A40
0357A0
02B6A0
04AA50
054D48
0A54A8
12A2B4
15A356
2D416A
7AC0BD
ENDCHAR
STARTCHAR Y
ENCODING 89
SWIDTH 789 0
DWIDTH 22 0
BBX 22 23 0 0
BITMAP
FA0154
5502A8
5502A8
2A8550
2A8550
154AA0
154AA0
0AB540
0A9540
056A80
056A80
02D500
02D500
01EA00
01AA00
00AA00
00AA00
00AA00
00AA00
00AA00
00AA00
00AA00
00AA00
ENDCHAR
STARTCHAR Z
ENCODING 90
SWIDTH 854 0
DWIDTH 24 0
BBX 22 23 1 0
BITMAP
FFFFFC
00000C
FFFF90
000064
FFFC98
000324
FFE4C8
001934
00264C
00C9B0
013260
064D80
099300
326400
4C9800
932000
64DFFC
990000
26FFFC
C80000
B7FFFC
480000
FFFFFC
ENDCHAR
STARTCHAR bracketleft
ENCODING 91
SWIDTH 320 0
DWIDTH 9 0
BBX 7 26 1 -2
BITMAP
FE
80
BE
A0
AE
A8
A8
A8
A8
A8
A8
A8
A8
A8
A8
A8
A8
A8
A8
A8
A8
AE
A0
BE
80
FE
ENDCHAR
STARTCHAR backslash
ENCODING 92
SWIDTH 448 0
DWIDTH 13 0
BBX 11 26 1 -3
BITMAP
A800
A800
A800
A800
5400
5400
5400
5400
2A00
2A00
2A00
2A00
1500
1500
1500
1500
0A80
0A80
0A80
0A80
0540
0540
0540
0540
02A0
02A0
ENDCHAR
STARTCHAR bracketright
ENCODING 93
SWIDTH 319 0
DWIDTH 9 0
BBX 7 26 1 -2
BITMAP
FE
02
FA
0A
EA
2A
2A
2A
2A
2A
2A
2A
2A
2A
2A
2A
2A
2A
2A
2A
2A
EA
0A
FA
02
FE
ENDCHAR
STARTCHAR asciicircum
ENCODING 94
SWIDTH 475 0
DWIDTH 13 0
BBX 12 11 1 9
BITMAP
0A00
0D00
1500
1580
2A80
2A80
2940
5140
5140
D0A0
A0B0
ENDCHAR
STARTCHAR underscore
ENCODING 95
SWIDTH 511 0
DWIDTH 14 0
BBX 12 5 1 -5
BITMAP
FFF0
0000
FFF0
0000
FFF0
ENDCHAR
STARTCHAR grave
ENCODING 96
SWIDTH 472 0
DWIDTH 13 0
BBX 11 7 1 20
BITMAP
2000
7000
CC00
3300
0CC0
0320
00C0
ENDCHAR
STARTCHAR a
ENCODING 97
SWIDTH 832 0
DWIDTH 23 0
BBX 21 21 1 -1
BITMAP
03FE00
0E0380
19FCC0
260360
69FCB0
520250
94F950
AB04A8
AA02A8
AA02A8
AA02A8
AA02A8
AA02A8
AD86A8
56FAA8
4B8EA8
24F2A8
138EA8
0C72A8
03CEA8
003000
ENDCHAR
STARTCHAR b
ENCODING 98
SWIDTH 720 0
DWIDTH 20 0
BBX 18 20 1 0
BITMAP
FFFC00
800700
BFF980
A00680
AFF940
A80540
A80540
A80D40
ABFB40
ABFE80
A80E80
ABF340
A80D40
A80540
A80540
ABF940
A802C0
ABFC80
A80300
ABFC00
ENDCHAR
STARTCHAR c
ENCODING 99
SWIDTH 736 0
DWIDTH 21 0
BBX 19 22 1 -1
BITMAP
007000
038E00
0C7180
138E40
247120
698EC0
567300
B58C00
AB0400
AA0000
AA0000
AA0000
AA0000
AA0000
A58400
56F900
5B0680
2CF9A0
130660
08FCC0
070300
01FC00
ENDCHAR
STARTCHAR d
ENCODING 100
SWIDTH 833 0
DWIDTH 23 0
BBX 21 20 1 0
BITMAP
FFFC00
800700
BFF8C0
A00760
AFF9B0
A80650
ABF948
AA04A8
AA02A8
AA02A8
AA02A8
AA02A8
AA06A8
ABFD68
A80350
AFFC90
A00320
BFFC40
800180
FFFE00
ENDCHAR
STARTCHAR e
ENCODING 101
SWIDTH 666 0
DWIDTH 19 0
BBX 17 20 1 0
BITMAP
ABFF80
AA0000
ABFF80
AA0000
ABFF80
AA0000
AA0000
AA0000
ABFF00
AA0000
ABFF00
AA0000
ABFF00
AA0000
AA0000
ABFF80
AA0000
ABFF80
AA0000
ABFF80
ENDCHAR
STARTCHAR f
ENCODING 102
SWIDTH 625 0
DWIDTH 18 0
BBX 16 20 1 0
BITMAP
ABFF
AA00
ABFF
AA00
ABFF
AA00
AA00
AA00
ABFE
AA00
ABFE
AA00
ABFE
AA00
AA00
AA00
AA00
AA00
AA00
AA00
ENDCHAR
STARTCHAR g
ENCODING 103
SWIDTH 827 0
DWIDTH 23 0
BBX 21 22 1 -1
BITMAP
007000
038E00
0C7180
138E40
247120
698EC0
567300
B58C00
AB0400
AA0000
AA0000
AA02A8
AA02A8
AA02A8
A586A8
56FAA8
5B06A8
2CFEA8
1302A8
08FEA8
0702A8
01FC00
ENDCHAR
STARTCHAR h
ENCODING 104
SWIDTH 830 0
DWIDTH 23 0
BBX 21 20 1 0
BITMAP
AA02A8
AA02A8
AA02A8
AA02A8
AA02A8
AA02A8
AA02A8
ABFEA8
AA02A8
ABFEA8
AA02A8
ABFEA8
AA02A8
AA02A8
AA02A8
AA02A8
AA02A8
AA02A8
AA02A8
AA02A8
ENDCHAR
STARTCHAR i
ENCODING 105
SWIDTH 337 0
DWIDTH 9 0
BBX 7 20 1 0
BITMAP
AA
AA
AA
AA
AA
AA
AA
AA
AA
AA
AA
AA
AA
AA
AA
AA
AA
AA
AA
AA
ENDCHAR
STARTCHAR j
ENCODING 106
SWIDTH 393 0
DWIDTH 11 0
BBX 9 23 1 -3
BITMAP
2A80
2A80
2A80
2A80
2A80
2A80
2A80
2A80
2A80
2A80
2A80
2A80
2A80
2A80
2A80
6A80
D500
2500
CB00
3200
CC00
3800
E000
ENDCHAR
STARTCHAR k
ENCODING 107
SWIDTH 801 0
DWIDTH 22 0
BBX 21 20 1 0
BITMAP
AA05A8
AA0550
AA0AD0
AA1AA0
AA1520
AA2540
AA2AC0
AA5A80
AA5500
AAA500
AAAB00
AAD500
AA5680
AA2A80
AA2940
AA1540
AA16A0
AA0AB0
AA0950
AA0578
ENDCHAR
STARTCHAR l
ENCODING 108
SWIDTH 583 0
DWIDTH 16 0
BBX 14 20 1 0
BITMAP
AA00
AA00
AA00
AA00
AA00
AA00
AA00
AA00
AA00
AA00
AA00
AA00
AA00
AA00
AA00
ABFC
AA00
ABFC
AA00
ABFC
ENDCHAR
STARTCHAR m
ENCODING 109
SWIDTH 1167 0
DWIDTH 33 0
BBX 31 21 1 0
BITMAP
01E00E00
0F1CF1C0
18E31E30
271DE1D8
49E2DE68
57196194
B4E55E54
AB1AA154
AA0AA0AA
AA0AA0AA
AA0AA0AA
AA0AA0AA
AA0AA0AA
AA0AA0AA
AA0AA0AA
AA0AA0AA
AA0AA0AA
AA0AA0AA
AA0AA0AA
AA0AA0AA
AA0AA0AA
ENDCHAR
STARTCHAR n
ENCODING 110
SWIDTH 787 0
DWIDTH 22 0
BBX 20 20 1 0
BITMAP
D50150
D28150
AAC150
AD4150
952150
B2A150
AAD150
AD5950
AD2950
AAA550
AAD550
A95B50
A92A50
A8A550
A8D5D0
A85A90
A82A50
A82550
A815B0
A81AB0
ENDCHAR
STARTCHAR o
ENCODING 111
SWIDTH 833 0
DWIDTH 23 0
BBX 21 22 1 -1
BITMAP
007800
038E00
0C7180
138E40
247120
698E90
567350
B58D28
AB06A8
AA02A8
AA02A8
AA03A8
AA02A8
AA02A8
A585A8
56F950
5B06D0
2CF9A0
130760
08FCC0
070300
01FC00
ENDCHAR
STARTCHAR p
ENCODING 112
SWIDTH 781 0
DWIDTH 22 0
BBX 20 20 1 0
BITMAP
FFFC00
800300
BFF8C0
A00740
AFF9A0
A806B0
ABF950
AA0550
AA0550
AAF950
AA06B0
AAF9A0
AA0760
AAF8C0
AA0700
AAFC00
AA0000
AA0000
AA0000
AA0000
ENDCHAR
STARTCHAR q
ENCODING 113
SWIDTH 788 0
DWIDTH 22 0
BBX 20 23 1 -3
BITMAP
01FFF0
0E0010
19FFD0
260050
49FF50
560150
A5FD50
AB0550
AA0550
AA0550
AA0550
ABF550
B40550
53F550
6C0550
37F550
180550
07F550
000550
000550
000550
000550
000550
ENDCHAR
STARTCHAR r
ENCODING 114
SWIDTH 831 0
DWIDTH 23 0
BBX 21 20 1 0
BITMAP
FFFE00
8001C0
BFFE60
A00190
AFFE58
A80128
ABFCA8
AA02A8
AA02A8
AAFCA8
AA0328
AAFC58
AA03B0
AAFE60
AA03C0
AAFD40
AA1540
AA1540
AA0AA0
AA0AA0
ENDCHAR
STARTCHAR s
ENCODING 115
SWIDTH 683 0
DWIDTH 19 0
BBX 17 20 1 0
BITMAP
0FF800
380700
67F980
580600
A7F900
A80400
A80000
AC0000
B3FC00
5C0600
63F900
1E0480
01FA80
000A80
100A80
1F7A80
608480
9F7900
618600
1FF800
ENDCHAR
STARTCHAR t
ENCODING 116
SWIDTH 588 0
DWIDTH 16 0
BBX 15 20 1 0
BITMAP
FFFE
0000
FFFE
0000
FFFE
0000
0AA0
0AA0
0AA0
0AA0
0AA0
0AA0
0AA0
0AA0
0AA0
0AA0
0AA0
0AA0
0AA0
0AA0
ENDCHAR
STARTCHAR u
ENCODING 117
SWIDTH 795 0
DWIDTH 22 0
BBX 20 21 1 -1
BITMAP
AA0550
AA0550
AA0550
AA0550
AA0550
AA0550
AA0550
AA0550
AA0550
AA0550
AA0550
AA0550
AA0550
AD0950
54F2B0
5B0CA0
2DF960
3606C0
19F980
060600
01F800
ENDCHAR
STARTCHAR v
ENCODING 118
SWIDTH 855 0
DWIDTH 24 0
BBX 23 20 0 0
BITMAP
D500AA
5500AA
5A815A
2A8154
2AC254
1542A8
1542A8
16A568
0AA550
0ABD50
055AA0
054AA0
0535A0
02B540
02B540
03EA80
012A80
015280
00D500
00F500
ENDCHAR
STARTCHAR w
ENCODING 119
SWIDTH 1129 0
DWIDTH 32 0
BBX 29 21 1 -1
BITMAP
AA154168
AA154168
AA154168
AA154168
AA154168
AA154168
AA154168
AA154168
AA154168
AA154168
AA154168
AA154168
AA1541A8
AB1562A8
B4ED5CA8
573AE368
48C698D0
2739E7B0
18C71860
0F3CF780
00C00800
ENDCHAR
STARTCHAR x
ENCODING 120
SWIDTH 790 0
DWIDTH 22 0
BBX 21 20 1 0
BITMAP
AD0B58
949A90
5A94A0
2B6D60
25EA40
155280
1A9580
09AD00
056A00
065600
02B400
05AA00
0D4900
0A5500
16B680
352A40
296D40
4AF5A0
D692B0
BD0B58
ENDCHAR
STARTCHAR y
ENCODING 121
SWIDTH 733 0
DWIDTH 21 0
BBX 20 20 0 0
BITMAP
FE0550
550550
2A8AA0
2A8AA0
155540
155540
0AAA80
0AAA80
055500
055500
02AA00
02AA00
015400
015400
015400
015400
015400
015400
015400
015400
ENDCHAR
STARTCHAR z
ENCODING 122
SWIDTH 714 0
DWIDTH 20 0
BBX 18 20 1 0
BITMAP
FFD4C0
002540
FFEB40
005A80
FF9580
00AD00
016A00
035200
029400
04AC00
0D6800
0B5000
12B000
15A000
2D4000
6A7FC0
528000
95FFC0
AD0000
FAFFC0
ENDCHAR
STARTCHAR braceleft
ENCODING 123
SWIDTH 396 0
DWIDTH 11 0
BBX 9 30 1 -6
BITMAP
0180
0E00
1180
2600
2980
2A00
5400
5400
5400
5400
5400
5400
5400
CC00
3400
C800
3400
D400
5400
5400
5400
5400
5400
5400
2A00
2B80
2C00
1380
0C00
0780
ENDCHAR
STARTCHAR bar
ENCODING 124
SWIDTH 266 0
DWIDTH 7 0
BBX 5 26 1 -3
BITMAP
A8
A8
A8
A8
A8
A8
A8
A8
A8
A8
A8
A8
A8
A8
A8
A8
A8
A8
A8
A8
A8
A8
A8
A8
A8
A8
ENDCHAR
STARTCHAR braceright
ENCODING 125
SWIDTH 396 0
DWIDTH 11 0
BBX 9 30 1 -6
BITMAP
E000
3800
C400
3200
CA00
2900
1500
1500
1500
1500
1500
1500
1580
1600
0B80
1C00
1380
1600
1500
1500
1500
1500
1500
1500
3500
EA00
1A00
E400
1800
F000
ENDCHAR
STARTCHAR asciitilde
ENCODING 126
SWIDTH 665 0
DWIDTH 19 0
BBX 17 5 1 16
BITMAP
1FF280
600280
DFFD00
B00100
A7FE00
ENDCHAR
STARTCHAR uni00A0
ENCODING 160
SWIDTH 108 0
DWIDTH 3 0
BBX 1 1 0 0
BITMAP
00
ENDCHAR
STARTCHAR exclamdown
ENCODING 161
SWIDTH 336 0
DWIDTH 9 0
BBX 7 24 1 -1
BITMAP
AA
AA
AA
AA
AA
AA
AA
AA
AA
AA
AA
AA
AA
AA
AA
AA
AA
00
00
FE
00
FE
00
FE
ENDCHAR
STARTCHAR cent
ENCODING 162
SWIDTH 708 0
DWIDTH 20 0
BBX 18 27 1 -2
BITMAP
009000
009000
009000
00F000
071E00
08F300
130C80
2C7340
5B9D80
56E600
AD9800
AA0C00
AA0000
AA0000
AA0000
AA0C00
A5BA00
564600
4BBD80
2C4240
13BC80
0C4300
03FC00
004000
009000
009000
009000
ENDCHAR
STARTCHAR sterling
ENCODING 163
SWIDTH 689 0
DWIDTH 19 0
BBX 18 24 1 0
BITMAP
00E000
0E1E00
10E180
271CC0
58E300
561E00
ADF000
AB1800
AA0000
AA0000
AA0000
AAFE00
AA0000
AAFE00
AA0000
AAFE00
AA0000
AA0000
AA0000
ABFE00
AA0000
ABFE00
AA0000
ABFE00
ENDCHAR
STARTCHAR currency
ENCODING 164
SWIDTH 715 0
DWIDTH 20 0
BBX 18 22 1 -1
BITMAP
100200
480480
A40D40
D5EAC0
5F1E80
29E500
161A00
2C0D00
280500
280500
280500
280500
280500
280500
340B00
33F300
6C0D80
53F2C0
B40940
680580
100200
100200
ENDCHAR
STARTCHAR yen
ENCODING 165
SWIDTH 796 0
DWIDTH 22 0
BBX 21 23 1 0
BITMAP
AE02A8
AA0550
550550
550AA0
2A8AA0
2A9540
3F5540
156A80
152A80
0AF500
0AD500
055A00
05AA00
02AA00
035400
015400
3D57C0
015400
3D57C0
015400
015400
015400
015400
ENDCHAR
STARTCHAR brokenbar
ENCODING 166
SWIDTH 263 0
DWIDTH 7 0
BBX 5 26 1 -3
BITMAP
A8
A8
A8
A8
A8
A8
A8
A8
A8
A8
A8
00
00
00
00
A8
A8
A8
A8
A8
A8
A8
A8
A8
A8
A8
ENDCHAR
STARTCHAR section
ENCODING 167
SWIDTH 108 0
DWIDTH 3 0
BBX 1 1 0 0
BITMAP
00
ENDCHAR
STARTCHAR dieresis
ENCODING 168
SWIDTH 556 0
DWIDTH 16 0
BBX 13 3 1 21
BITMAP
A868
A868
A868
ENDCHAR
STARTCHAR copyright
ENCODING 169
SWIDTH 869 0
DWIDTH 24 0
BBX 23 23 1 1
BITMAP
003000
03FF00
0701C0
1C0060
307830
31FF18
630398
46008C
C4000C
CC0004
8C0004
880006
880004
CC0004
CC0004
C6008C
630188
61C718
30FC30
180060
0E00C0
03C780
00FE00
ENDCHAR
STARTCHAR ordfeminine
ENCODING 170
SWIDTH 833 0
DWIDTH 23 0
BBX 21 21 1 -1
BITMAP
03FE00
0E0180
19FCC0
360320
29FCB0
5A0250
54FD68
A906A8
AA02A8
AA02A8
AA02A8
AA02A8
AA02A8
9586A8
567AA8
6B86A8
247AA8
138EA8
0C32A8
03CEA8
007000
ENDCHAR
STARTCHAR guillemotleft
ENCODING 171
SWIDTH 911 0
DWIDTH 26 0
BBX 23 14 1 3
BITMAP
006002
01801C
0E6062
31C39C
CE2472
39C38C
C60670
3B8198
CCE6C6
E30738
1CE1C6
07203A
00E00E
002002
ENDCHAR
STARTCHAR logicalnot
ENCODING 172
SWIDTH 718 0
DWIDTH 20 0
BBX 18 9 1 6
BITMAP
FFFD40
000540
FFFD40
000540
FFFD40
000540
000540
000540
000540
ENDCHAR
STARTCHAR registered
ENCODING 174
SWIDTH 869 0
DWIDTH 24 0
BBX 23 23 1 1
BITMAP
003000
03FF00
0701C0
1C0060
300030
300018
61FE18
41030C
C1010C
C10184
810104
81FF06
81FE04
C10C04
C10404
C1060C
610608
610318
300030
180060
0E00C0
03C780
00FE00
ENDCHAR
STARTCHAR degree
ENCODING 176
SWIDTH 330 0
DWIDTH 9 0
BBX 7 7 1 22
BITMAP
3C
52
AA
C6
A6
9A
7C
ENDCHAR
STARTCHAR plusminus
ENCODING 177
SWIDTH 598 0
DWIDTH 17 0
BBX 15 17 1 1
BITMAP
0AA0
0AA0
0AA0
0AA0
FABE
0AA0
FABE
0AA0
FABE
0AA0
0AA0
0AA0
0AA0
0000
7FFC
0000
7FFC
ENDCHAR
STARTCHAR uni00B2
ENCODING 178
SWIDTH 435 0
DWIDTH 12 0
BBX 10 18 1 5
BITMAP
1C00
E180
1E40
6140
0140
0140
02C0
0680
0500
0A00
1600
3400
2800
5000
B000
FFC0
0000
FFC0
ENDCHAR
STARTCHAR uni00B3
ENCODING 179
SWIDTH 515 0
DWIDTH 14 0
BBX 13 19 1 4
BITMAP
1C00
E380
3C40
C320
BCA0
6350
0150
0050
1FA0
0060
1F90
0050
1F48
00A8
7B68
0C50
FF90
0060
FFC0
ENDCHAR
STARTCHAR acute
ENCODING 180
SWIDTH 472 0
DWIDTH 13 0
BBX 11 7 1 20
BITMAP
0040
0180
0660
19C0
6700
9C00
3000
ENDCHAR
STARTCHAR uni00B5
ENCODING 181
SWIDTH 802 0
DWIDTH 22 0
BBX 20 23 1 -3
BITMAP
AA0550
AA0550
AA0550
AA0550
AA0550
AA0550
AA0550
AA0550
AA0550
AA0550
AA0550
AA0550
AA0550
AA0D50
AAF250
AA04A0
AAF920
AA0640
AAF980
AA0700
AAF800
AA0000
AA0000
ENDCHAR
STARTCHAR paragraph
ENCODING 182
SWIDTH 676 0
DWIDTH 19 0
BBX 17 23 1 -3
BITMAP
03FF80
0C0080
31FE80
6E0280
5BFA80
B60A80
A9EA80
AA2A80
AA2A80
A9EA80
B62A80
53EA80
6E2A80
31EA80
1C2A80
03EA80
002A80
002A80
002A80
002A80
002A80
002A80
003B80
ENDCHAR
STARTCHAR periodcentered
ENCODING 183
SWIDTH 260 0
DWIDTH 7 0
BBX 5 5 1 11
BITMAP
F8
00
F8
00
F8
ENDCHAR
STARTCHAR cedilla
ENCODING 184
SWIDTH 321 0
DWIDTH 9 0
BBX 7 10 1 -11
BITMAP
0A
1A
62
5E
B0
A0
B0
4E
70
0E
ENDCHAR
STARTCHAR uni00B9
ENCODING 185
SWIDTH 359 0
DWIDTH 10 0
BBX 8 16 1 7
BITMAP
FF
00
FF
15
15
15
15
15
15
15
15
15
15
15
15
15
ENDCHAR
STARTCHAR ordmasculine
ENCODING 186
SWIDTH 835 0
DWIDTH 23 0
BBX 22 22 1 -1
BITMAP
007800
038F00
0C7980
1B8E40
2679A0
698ED0
527350
558DA8
A902A8
AA02A8
AA01D4
AA0154
AA02A8
AB02A8
9584A8
56F948
4B06D0
24F9A0
130760
0CFCC0
070300
01FC00
ENDCHAR
STARTCHAR guillemotright
ENCODING 187
SWIDTH 912 0
DWIDTH 26 0
BBX 23 14 1 3
BITMAP
C00400
300380
CE0460
71839C
8E64E2
73831C
0C60E6
3B8198
E66636
18E1C6
E30638
9C09C0
E00700
800800
ENDCHAR
STARTCHAR onequarter
ENCODING 188
SWIDTH 1236 0
DWIDTH 35 0
BBX 33 26 1 -3
BITMAP
FF01500000
0002500000
FF02A00000
1502A00000
1502A04000
1504A0B400
150540A800
1505416800
1505415000
1509425000
150A82A000
150A86A000
150A856600
15128D4600
15150AC600
15150FFF80
0015000000
00350FFF80
002A000000
002A0FFF80
002A000000
006A000600
0054000600
0054000000
0054000000
00F4000000
ENDCHAR
STARTCHAR onehalf
ENCODING 189
SWIDTH 1154 0
DWIDTH 32 0
BBX 31 26 1 -3
BITMAP
FF015000
00025000
FF02A000
1502A000
1502A000
1504A3E0
15054C1C
150543E4
15054416
1509401E
150A8014
150A802C
150A8068
15128050
151500A0
15150160
00150340
00350280
002A0500
002A0800
002A0FFC
006A0000
00540FFC
00540000
00540000
00F40000
ENDCHAR
STARTCHAR threequarters
ENCODING 190
SWIDTH 1345 0
DWIDTH 38 0
BBX 36 26 1 -3
BITMAP
1C00150000
E3802A0000
3C402A0000
C3202A0000
3CA02A0000
E350541E80
0150541500
0050542500
1FA0542A00
0060A86A00
1FB0A85600
0050A8D400
1F50A8ACA0
00A951A8A0
7B515148A0
0C5151FFF0
FFB1500000
0062A1FFF0
FFC2A00000
0002A1FFF0
0002A00000
00054000A0
00054000A0
0005400000
0005400000
000A800000
ENDCHAR
STARTCHAR questiondown
ENCODING 191
SWIDTH 693 0
DWIDTH 19 0
BBX 18 24 1 0
BITMAP
03C000
3C3800
63C600
9C7B00
61CD00
1C3280
03CA80
0C2540
001540
003540
2ACA80
2A3280
2AC580
2A3900
2AC600
2AF800
2A0000
2A0000
000000
7E0000
000000
7E0000
000000
7E0000
ENDCHAR
STARTCHAR Agrave
ENCODING 192
SWIDTH 936 0
DWIDTH 26 0
BBX 26 32 0 0
BITMAP
02000000
03000000
0CC00000
03300000
00CE0000
00320000
000C0000
00000000
00000000
006A8000
006A8000
006B4000
00954000
00B54000
017AA000
014AA000
015AD000
02A55000
02AD5000
05ACA800
0552A800
0552B400
0AD15400
0AA15400
12BF2A00
1540AA00
155FA900
2B605500
2ABFD500
6A805A80
55002A80
D5002FC0
ENDCHAR
STARTCHAR Aacute
ENCODING 193
SWIDTH 936 0
DWIDTH 26 0
BBX 26 32 0 0
BITMAP
00001000
00003800
0000CC00
00033000
000CC000
00130000
000C0000
00000000
00000000
006A8000
006A8000
006B4000
00954000
00B54000
017AA000
014AA000
015AD000
02A55000
02AD5000
05ACA800
0552A800
0552B400
0AD15400
0AA15400
12BF2A00
1540AA00
155FA900
2B605500
2ABFD500
6A805A80
55002A80
D5002FC0
ENDCHAR
STARTCHAR Acircumflex
ENCODING 194
SWIDTH 936 0
DWIDTH 26 0
BBX 26 32 0 0
BITMAP
001A0000
001A0000
001D0000
00250000
002D0000
004A8000
00528000
00000000
00000000
006A8000
006A8000
006B4000
00954000
00B54000
017AA000
014AA000
015AD000
02A55000
02AD5000
05ACA800
0552A800
0552B400
0AD15400
0AA15400
12BF2A00
1540AA00
155FA900
2B605500
2ABFD500
6A805A80
55002A80
D5002FC0
ENDCHAR
STARTCHAR Atilde
ENCODING 195
SWIDTH 936 0
DWIDTH 26 0
BBX 26 30 0 0
BITMAP
00FFB800
03002800
04FFE800
05000800
053FF000
00000000
00000000
006A8000
006A8000
006B4000
00954000
00B54000
017AA000
014AA000
015AD000
02A55000
02AD5000
05ACA800
0552A800
0552B400
0AD15400
0AA15400
12BF2A00
1540AA00
155FA900
2B605500
2ABFD500
6A805A80
55002A80
D5002FC0
ENDCHAR
STARTCHAR Adieresis
ENCODING 196
SWIDTH 936 0
DWIDTH 26 0
BBX 26 28 0 0
BITMAP
02A15000
02A15000
02A15000
00000000
00000000
006A8000
006A8000
006B4000
00954000
00B54000
017AA000
014AA000
015AD000
02A55000
02AD5000
05ACA800
0552A800
0552B400
0AD15400
0AA15400
12BF2A00
1540AA00
155FA900
2B605500
2ABFD500
6A805A80
55002A80
D5002FC0
ENDCHAR
STARTCHAR Aring
ENCODING 197
SWIDTH 936 0
DWIDTH 26 0
BBX 26 31 0 0
BITMAP
001E0000
00250000
003A8000
00528000
00528000
002D0000
001E0000
00000000
006A8000
006A8000
006B4000
00954000
00B54000
017AA000
014AA000
015AD000
02A55000
02AD5000
05ACA800
0552A800
0552B400
0AD15400
0AA15400
12BF2A00
1540AA00
155FA900
2B605500
2ABFD500
6A805A80
55002A80
D5002FC0
ENDCHAR
STARTCHAR AE
ENCODING 198
SWIDTH 1198 0
DWIDTH 34 0
BBX 33 23 0 0
BITMAP
006AFFFF80
006A800000
006B7FFF80
0095400000
00B57FFF80
017AA00000
014AA00000
015AD00000
02A5500000
02AD5FFE00
04ACA80000
0552AFFE00
0552B40000
0AD157FE00
0AA1540000
1ABF2A0000
1540AA0000
155FAE0000
2B6055FF80
2ABFD50000
6A805AFF80
55002A8000
D5002FFF80
ENDCHAR
STARTCHAR Ccedilla
ENCODING 199
SWIDTH 852 0
DWIDTH 24 0
BBX 22 34 1 -10
BITMAP
003800
01E780
061860
09C790
131C48
24E324
6B3CD8
56E360
D580A0
A90080
AA0000
AA0000
AA0000
AA0000
AA0000
AA0000
B50080
54C320
4B7E58
2D81B4
167E6C
1981D8
047E20
0381C0
007E00
003400
00C400
01BC00
016000
014000
016000
019C00
00E000
001C00
ENDCHAR
STARTCHAR Egrave
ENCODING 200
SWIDTH 706 0
DWIDTH 20 0
BBX 18 32 1 0
BITMAP
200000
700000
CC0000
330000
0CC000
032000
00C000
000000
000000
ABFFC0
AA0000
ABFFC0
AA0000
ABFFC0
AA0000
AA0000
AA0000
AA0000
ABF800
AA0000
ABF800
AA0000
ABF800
AA0000
AA0000
AA0000
AA0000
ABFFC0
AA0000
ABFFC0
AA0000
ABFFC0
ENDCHAR
STARTCHAR Eacute
ENCODING 201
SWIDTH 706 0
DWIDTH 20 0
BBX 18 32 1 0
BITMAP
000100
000380
000CC0
003300
00CC00
013000
00C000
000000
000000
ABFFC0
AA0000
ABFFC0
AA0000
ABFFC0
AA0000
AA0000
AA0000
AA0000
ABF800
AA0000
ABF800
AA0000
ABF800
AA0000
AA0000
AA0000
AA0000
ABFFC0
AA0000
ABFFC0
AA0000
ABFFC0
ENDCHAR
STARTCHAR Ecircumflex
ENCODING 202
SWIDTH 706 0
DWIDTH 20 0
BBX 18 32 1 0
BITMAP
01E000
01A000
03A000
025000
02D000
056800
052800
000000
000000
ABFFC0
AA0000
ABFFC0
AA0000
ABFFC0
AA0000
AA0000
AA0000
AA0000
ABF800
AA0000
ABF800
AA0000
ABF800
AA0000
AA0000
AA0000
AA0000
ABFFC0
AA0000
ABFFC0
AA0000
ABFFC0
ENDCHAR
STARTCHAR Edieresis
ENCODING 203
SWIDTH 706 0
DWIDTH 20 0
BBX 18 28 1 0
BITMAP
2A1500
2A1500
2A1500
000000
000000
ABFFC0
AA0000
ABFFC0
AA0000
ABFFC0
AA0000
AA0000
AA0000
AA0000
ABF800
AA0000
ABF800
AA0000
ABF800
AA0000
AA0000
AA0000
AA0000
ABFFC0
AA0000
ABFFC0
AA0000
ABFFC0
ENDCHAR
STARTCHAR Igrave
ENCODING 204
SWIDTH 338 0
DWIDTH 9 0
BBX 12 32 -4 0
BITMAP
4000
3000
CC00
7300
1CC0
0720
0080
0000
0000
0550
0550
0550
0550
0550
0550
0550
0550
0550
0550
0550
0550
0550
0550
0550
0550
0550
0550
0550
0550
0550
0550
0550
ENDCHAR
STARTCHAR Iacute
ENCODING 205
SWIDTH 338 0
DWIDTH 9 0
BBX 13 32 1 0
BITMAP
0020
00E0
0398
0E60
7980
2600
1800
0000
0000
AA00
AA00
AA00
AA00
AA00
AA00
AA00
AA00
AA00
AA00
AA00
AA00
AA00
AA00
AA00
AA00
AA00
AA00
AA00
AA00
AA00
AA00
AA00
ENDCHAR
STARTCHAR Icircumflex
ENCODING 206
SWIDTH 338 0
DWIDTH 9 0
BBX 9 32 0 0
BITMAP
1400
1A00
2A00
2D00
5500
5500
D280
0000
0000
5500
5500
5500
5500
5500
5500
5500
5500
5500
5500
5500
5500
5500
5500
5500
5500
5500
5500
5500
5500
5500
5500
5500
ENDCHAR
STARTCHAR Idieresis
ENCODING 207
SWIDTH 338 0
DWIDTH 9 0
BBX 13 28 -2 0
BITMAP
A8A8
A8A8
A8A8
0000
0000
1540
1540
1540
1540
1540
1540
1540
1540
1540
1540
1540
1540
1540
1540
1540
1540
1540
1540
1540
1540
1540
1540
1540
ENDCHAR
STARTCHAR Eth
ENCODING 208
SWIDTH 905 0
DWIDTH 25 0
BBX 23 23 1 0
BITMAP
7FFC00
4001C0
5FFE60
500190
57FE48
5401A4
55FCD4
55035A
5501AA
FFC0AA
0000AA
FFC0AA
0000AA
FFC0AA
0000AA
55016A
55FE54
5401B4
57FF68
5000D8
5FFF30
4000C0
7FFF00
ENDCHAR
STARTCHAR Ntilde
ENCODING 209
SWIDTH 877 0
DWIDTH 25 0
BBX 22 30 1 0
BITMAP
03FE50
0C00D0
13FFA0
160020
14FFC0
000000
000000
D50154
D28154
AA4154
AD4154
95A154
BAB154
AB5154
A54954
ACA954
AA9554
AB5754
AB6AD4
AAAD54
AAD554
AA52B4
AA2AD4
AA2D54
AA15B4
AA1AAC
AA0B54
AA054C
AA04AC
AA02F4
ENDCHAR
STARTCHAR Ograve
ENCODING 210
SWIDTH 933 0
DWIDTH 26 0
BBX 24 33 1 -1
BITMAP
040000
0E0000
198000
066000
019800
006400
001800
000000
001800
01E780
061860
09C390
131C48
24E334
6B3CD2
56E76A
D581AD
A900D5
AA0055
AA0055
AA0055
AA0055
AA0055
AA0055
B500B5
54C12A
4B7E5A
2D81B4
167E6C
198198
047E20
0381C0
007E00
ENDCHAR
STARTCHAR Oacute
ENCODING 211
SWIDTH 933 0
DWIDTH 26 0
BBX 24 33 1 -1
BITMAP
000020
000070
000198
000660
001980
002600
001800
000000
001800
01E780
061860
09C390
131C48
24E334
6B3CD2
56E76A
D581AD
A900D5
AA0055
AA0055
AA0055
AA0055
AA0055
AA0055
B500B5
54C12A
4B7E5A
2D81B4
167E6C
198198
047E20
0381C0
007E00
ENDCHAR
STARTCHAR Ocircumflex
ENCODING 212
SWIDTH 933 0
DWIDTH 26 0
BBX 24 33 1 -1
BITMAP
003400
003400
003600
004A00
005A00
00B500
00A500
000000
001800
01E780
061860
09C390
131C48
24E334
6B3CD2
56E76A
D581AD
A900D5
AA0055
AA0055
AA0055
AA0055
AA0055
AA0055
B500B5
54C12A
4B7E5A
2D81B4
167E6C
198198
047E20
0381C0
007E00
ENDCHAR
STARTCHAR Otilde
ENCODING 213
SWIDTH 933 0
DWIDTH 26 0
BBX 24 31 1 -1
BITMAP
01FF50
060050
09FFD0
0A0010
0A7FE0
000000
001800
01E780
061860
09C390
131C48
24E334
6B3CD2
56E76A
D581AD
A900D5
AA0055
AA0055
AA0055
AA0055
AA0055
AA0055
B500B5
54C12A
4B7E5A
2D81B4
167E6C
198198
047E20
0381C0
007E00
ENDCHAR
STARTCHAR Odieresis
ENCODING 214
SWIDTH 933 0
DWIDTH 26 0
BBX 24 29 1 -1
BITMAP
0542A0
0542A0
0542A0
000000
001800
01E780
061860
09C390
131C48
24E334
6B3CD2
56E76A
D581AD
A900D5
AA0055
AA0055
AA0055
AA0055
AA0055
AA0055
B500B5
54C12A
4B7E5A
2D81B4
167E6C
198198
047E20
0381C0
007E00
ENDCHAR
STARTCHAR multiply
ENCODING 215
SWIDTH 790 0
DWIDTH 22 0
BBX 21 20 1 0
BITMAP
AD0B58
949A90
5A94A0
2B6D60
25EA40
155280
1A9580
09AD00
056A00
065600
02B400
05AA00
0D4900
0A5500
16B680
352A40
296D40
4AF5A0
D692B0
BD0B58
ENDCHAR
STARTCHAR Oslash
ENCODING 216
SWIDTH 938 0
DWIDTH 26 0
BBX 24 31 1 -4
BITMAP
000040
000050
0000AC
0018A8
01E788
061870
09C390
131C48
24C324
6B3CD2
56E76A
D581AD
AB00D5
AA0055
AA0055
AA0055
AA0055
AA0055
AA0055
B500A5
54C32A
5A7E5A
2D81B4
167E6C
198198
047E30
0B81C0
147E00
150000
290000
0A0000
ENDCHAR
STARTCHAR Ugrave
ENCODING 217
SWIDTH 905 0
DWIDTH 25 0
BBX 23 33 1 -1
BITMAP
080000
060000
398000
0E6000
039800
00E400
003000
000000
000000
AA00AA
AA00AA
AA00AA
AA00AA
AA00AA
AA00AA
AA00AA
AA00AA
AA00AA
AA00AA
AA00AA
AA00AA
AA00AA
AA00AA
AA00AA
A5012A
548356
5A7C94
29832C
367E48
1B8190
0CFE60
030180
00FE00
ENDCHAR
STARTCHAR Uacute
ENCODING 218
SWIDTH 905 0
DWIDTH 25 0
BBX 23 33 1 -1
BITMAP
000020
0000E0
000398
000C60
003180
006600
001800
000000
000000
AA00AA
AA00AA
AA00AA
AA00AA
AA00AA
AA00AA
AA00AA
AA00AA
AA00AA
AA00AA
AA00AA
AA00AA
AA00AA
AA00AA
AA00AA
A5012A
548356
5A7C94
29832C
367E48
1B8190
0CFE60
030180
00FE00
ENDCHAR
STARTCHAR Ucircumflex
ENCODING 219
SWIDTH 905 0
DWIDTH 25 0
BBX 23 33 1 -1
BITMAP
002800
003400
005400
005600
00AA00
00AA00
01ED00
000000
000000
AA00AA
AA00AA
AA00AA
AA00AA
AA00AA
AA00AA
AA00AA
AA00AA
AA00AA
AA00AA
AA00AA
AA00AA
AA00AA
AA00AA
AA00AA
A5012A
548356
5A7C94
29832C
367E48
1B8190
0CFE60
030180
00FE00
ENDCHAR
STARTCHAR Udieresis
ENCODING 220
SWIDTH 905 0
DWIDTH 25 0
BBX 23 29 1 -1
BITMAP
054540
054540
054540
000000
000000
AA00AA
AA00AA
AA00AA
AA00AA
AA00AA
AA00AA
AA00AA
AA00AA
AA00AA
AA00AA
AA00AA
AA00AA
AA00AA
AA00AA
AA00AA
A5012A
548356
5A7C94
29832C
367E48
1B8190
0CFE60
030180
00FE00
ENDCHAR
STARTCHAR Yacute
ENCODING 221
SWIDTH 789 0
DWIDTH 22 0
BBX 22 32 0 0
BITMAP
000040
0000E0
000330
000CC0
003300
004C00
003000
000000
000000
FA0154
5502A8
5502A8
2A8550
2A8550
154AA0
154AA0
0AB540
0A9540
056A80
056A80
02D500
02D500
01EA00
01AA00
00AA00
00AA00
00AA00
00AA00
00AA00
00AA00
00AA00
00AA00
ENDCHAR
STARTCHAR Thorn
ENCODING 222
SWIDTH 798 0
DWIDTH 22 0
BBX 20 26 1 -2
BITMAP
AA0000
AA0000
AA0000
ABFC00
AA0300
ABFC80
AA0240
ABF9A0
AA06A0
ABFB50
AA0550
AA0550
AA0350
AA0550
AA0550
AAF950
AA0290
AAFDA0
AA0340
AAFCC0
AA0300
AAFE00
AA0000
AA0000
AA0000
AA0000
ENDCHAR
STARTCHAR germandbls
ENCODING 223
SWIDTH 826 0
DWIDTH 23 0
BBX 21 26 1 -2
BITMAP
01FC00
0E0380
11FCC0
260720
49FC90
560350
A5FD48
AB06A8
AA02A8
AAFEA8
AA0150
AAFED0
AA0350
AAFCA8
AA02A8
AA02A8
AA02A8
AAFEA8
AA0168
AAFE50
AA01B0
AAFE60
AA01C0
AAFF00
AA0000
AA0000
ENDCHAR
STARTCHAR agrave
ENCODING 224
SWIDTH 832 0
DWIDTH 23 0
BBX 21 30 1 -1
BITMAP
100000
1C0000
670000
19C000
067800
019000
006000
000000
000000
03FE00
0E0380
19FCC0
260360
69FCB0
520250
94F950
AB04A8
AA02A8
AA02A8
AA02A8
AA02A8
AA02A8
AD86A8
56FAA8
4B8EA8
24F2A8
138EA8
0C72A8
03CEA8
003000
ENDCHAR
STARTCHAR aacute
ENCODING 225
SWIDTH 832 0
DWIDTH 23 0
BBX 21 30 1 -1
BITMAP
000040
000180
000660
0019C0
006700
009C00
003000
000000
000000
03FE00
0E0380
19FCC0
260360
69FCB0
520250
94F950
AB04A8
AA02A8
AA02A8
AA02A8
AA02A8
AA02A8
AD86A8
56FAA8
4B8EA8
24F2A8
138EA8
0C72A8
03CEA8
003000
ENDCHAR
STARTCHAR acircumflex
ENCODING 226
SWIDTH 832 0
DWIDTH 23 0
BBX 21 30 1 -1
BITMAP
005000
00D000
00A800
012800
016400
015400
029600
000000
000000
03FE00
0E0380
19FCC0
260360
69FCB0
520250
94F950
AB04A8
AA02A8
AA02A8
AA02A8
AA02A8
AA02A8
AD86A8
56FAA8
4B8EA8
24F2A8
138EA8
0C72A8
03CEA8
003000
ENDCHAR
STARTCHAR atilde
ENCODING 227
SWIDTH 832 0
DWIDTH 23 0
BBX 21 28 1 -1
BITMAP
07FCA0
1801A0
37FF40
2C0040
29FF80
000000
000000
03FE00
0E0380
19FCC0
260360
69FCB0
520250
94F950
AB04A8
AA02A8
AA02A8
AA02A8
AA02A8
AA02A8
AD86A8
56FAA8
4B8EA8
24F2A8
138EA8
0C72A8
03CEA8
003000
ENDCHAR
STARTCHAR adieresis
ENCODING 228
SWIDTH 832 0
DWIDTH 23 0
BBX 21 26 1 -1
BITMAP
0A8A80
0A8A80
0A8A80
000000
000000
03FE00
0E0380
19FCC0
260360
69FCB0
520250
94F950
AB04A8
AA02A8
AA02A8
AA02A8
AA02A8
AA02A8
AD86A8
56FAA8
4B8EA8
24F2A8
138EA8
0C72A8
03CEA8
003000
ENDCHAR
STARTCHAR aring
ENCODING 229
SWIDTH 832 0
DWIDTH 23 0
BBX 21 30 1 -1
BITMAP
007000
01A800
015400
018C00
018C00
017400
00F800
000000
000000
03FE00
0E0380
19FCC0
260360
69FCB0
520250
94F950
AB04A8
AA02A8
AA02A8
AA02A8
AA02A8
AA02A8
AD86A8
56FAA8
4B8EA8
24F2A8
138EA8
0C72A8
03CEA8
003000
ENDCHAR
STARTCHAR ae
ENCODING 230
SWIDTH 1166 0
DWIDTH 33 0
BBX 31 21 1 -1
BITMAP
03FEAFFE
0E03A800
19FCEFFE
26036800
69FCBFFE
52025800
94F95800
AB04A800
AA02AFFC
AA02A800
AA02AFFC
AA02A800
AA02AFFC
AD86A800
56FAA800
4B8EAFFE
24F2A800
138EAFFE
0C72A800
03CEAFFE
00300000
ENDCHAR
STARTCHAR ccedilla
ENCODING 231
SWIDTH 736 0
DWIDTH 21 0
BBX 19 31 1 -10
BITMAP
007000
038E00
0C7180
138E40
247120
698EC0
567300
B58C00
AB0400
AA0000
AA0000
AA0000
AA0000
AA0000
A58400
56F900
5B0680
2CF9A0
130660
08FCC0
070300
01FC00
005000
039000
027000
028000
028000
028000
023000
01C000
003000
ENDCHAR
STARTCHAR egrave
ENCODING 232
SWIDTH 666 0
DWIDTH 19 0
BBX 18 29 0 0
BITMAP
200000
380000
CE0000
318000
0C6000
033000
00C000
000000
000000
55FFC0
550000
55FFC0
550000
55FFC0
550000
550000
550000
55FF80
550000
55FF80
550000
55FF80
550000
550000
55FFC0
550000
55FFC0
550000
55FFC0
ENDCHAR
STARTCHAR eacute
ENCODING 233
SWIDTH 666 0
DWIDTH 19 0
BBX 18 29 1 0
BITMAP
000100
000600
0018C0
006700
019C00
027000
00C000
000000
000000
ABFF80
AA0000
ABFF80
AA0000
ABFF80
AA0000
AA0000
AA0000
ABFF00
AA0000
ABFF00
AA0000
ABFF00
AA0000
AA0000
ABFF80
AA0000
ABFF80
AA0000
ABFF80
ENDCHAR
STARTCHAR ecircumflex
ENCODING 234
SWIDTH 666 0
DWIDTH 19 0
BBX 17 29 1 0
BITMAP
014000
036000
02A000
02A000
055000
055000
0B7800
000000
000000
ABFF80
AA0000
ABFF80
AA0000
ABFF80
AA0000
AA0000
AA0000
ABFF00
AA0000
ABFF00
AA0000
ABFF00
AA0000
AA0000
ABFF80
AA0000
ABFF80
AA0000
ABFF80
ENDCHAR
STARTCHAR edieresis
ENCODING 235
SWIDTH 666 0
DWIDTH 19 0
BBX 17 25 1 0
BITMAP
2A2A00
2A2A00
2A2A00
000000
000000
ABFF80
AA0000
ABFF80
AA0000
ABFF80
AA0000
AA0000
AA0000
ABFF00
AA0000
ABFF00
AA0000
ABFF00
AA0000
AA0000
ABFF80
AA0000
ABFF80
AA0000
ABFF80
ENDCHAR
STARTCHAR igrave
ENCODING 236
SWIDTH 337 0
DWIDTH 9 0
BBX 12 29 -4 0
BITMAP
4000
3000
CC00
7300
1CC0
0720
0080
0000
0000
0550
0550
0550
0550
0550
0550
0550
0550
0550
0550
0550
0550
0550
0550
0550
0550
0550
0550
0550
0550
ENDCHAR
STARTCHAR iacute
ENCODING 237
SWIDTH 337 0
DWIDTH 9 0
BBX 13 29 1 0
BITMAP
0020
00E0
0398
0E60
7980
2600
1800
0000
0000
AA00
AA00
AA00
AA00
AA00
AA00
AA00
AA00
AA00
AA00
AA00
AA00
AA00
AA00
AA00
AA00
AA00
AA00
AA00
AA00
ENDCHAR
STARTCHAR icircumflex
ENCODING 238
SWIDTH 337 0
DWIDTH 9 0
BBX 9 29 0 0
BITMAP
1400
1A00
2A00
2D00
5500
5500
D280
0000
0000
5500
5500
5500
5500
5500
5500
5500
5500
5500
5500
5500
5500
5500
5500
5500
5500
5500
5500
5500
5500
ENDCHAR
STARTCHAR idieresis
ENCODING 239
SWIDTH 337 0
DWIDTH 9 0
BBX 13 25 -2 0
BITMAP
A8A8
A8A8
A8A8
0000
0000
1540
1540
1540
1540
1540
1540
1540
1540
1540
1540
1540
1540
1540
1540
1540
1540
1540
1540
1540
1540
ENDCHAR
STARTCHAR eth
ENCODING 240
SWIDTH 783 0
DWIDTH 22 0
BBX 20 25 1 -1
BITMAP
00E000
0F1E00
30E300
6F1C80
19E340
0F1DA0
01E6A0
031AD0
000550
000550
07F550
180550
67F550
580550
B7F550
A8F550
AB0550
AA0950
ABF2A0
A40CA0
53F960
4C06C0
33F980
1C0600
03F800
ENDCHAR
STARTCHAR ntilde
ENCODING 241
SWIDTH 787 0
DWIDTH 22 0
BBX 20 27 1 0
BITMAP
0FF940
180140
27FF40
2800C0
29FF80
000000
000000
D50150
D28150
AAC150
AD4150
952150
B2A150
AAD150
AD5950
AD2950
AAA550
AAD550
A95B50
A92A50
A8A550
A8D5D0
A85A90
A82A50
A82550
A815B0
A81AB0
ENDCHAR
STARTCHAR ograve
ENCODING 242
SWIDTH 833 0
DWIDTH 23 0
BBX 21 30 1 -1
BITMAP
100000
0C0000
630000
1CC000
073000
01C800
006000
000000
007800
038E00
0C7180
138E40
247120
698E90
567350
B58D28
AB06A8
AA02A8
AA02A8
AA03A8
AA02A8
AA02A8
A585A8
56F950
5B06D0
2CF9A0
130760
08FCC0
070300
01FC00
ENDCHAR
STARTCHAR oacute
ENCODING 243
SWIDTH 833 0
DWIDTH 23 0
BBX 21 30 1 -1
BITMAP
000040
0001C0
000630
0018C0
006300
00CC00
003000
000000
007800
038E00
0C7180
138E40
247120
698E90
567350
B58D28
AB06A8
AA02A8
AA02A8
AA03A8
AA02A8
AA02A8
A585A8
56F950
5B06D0
2CF9A0
130760
08FCC0
070300
01FC00
ENDCHAR
STARTCHAR ocircumflex
ENCODING 244
SWIDTH 833 0
DWIDTH 23 0
BBX 21 30 1 -1
BITMAP
005000
00E800
00A800
00A800
015400
015400
01DA00
000000
007800
038E00
0C7180
138E40
247120
698E90
567350
B58D28
AB06A8
AA02A8
AA02A8
AA03A8
AA02A8
AA02A8
A585A8
56F950
5B06D0
2CF9A0
130760
08FCC0
070300
01FC00
ENDCHAR
STARTCHAR otilde
ENCODING 245
SWIDTH 833 0
DWIDTH 23 0
BBX 21 28 1 -1
BITMAP
07FCA0
1800A0
13FF20
240040
29FF80
000000
007800
038E00
0C7180
138E40
247120
698E90
567350
B58D28
AB06A8
AA02A8
AA02A8
AA03A8
AA02A8
AA02A8
A585A8
56F950
5B06D0
2CF9A0
130760
08FCC0
070300
01FC00
ENDCHAR
STARTCHAR odieresis
ENCODING 246
SWIDTH 833 0
DWIDTH 23 0
BBX 21 26 1 -1
BITMAP
0A8A80
0A8A80
0A8A80
000000
007800
038E00
0C7180
138E40
247120
698E90
567350
B58D28
AB06A8
AA02A8
AA02A8
AA03A8
AA02A8
AA02A8
A585A8
56F950
5B06D0
2CF9A0
130760
08FCC0
070300
01FC00
ENDCHAR
STARTCHAR divide
ENCODING 247
SWIDTH 260 0
DWIDTH 7 0
BBX 9 16 -1 1
BITMAP
2A00
2A00
2A00
2A00
2A00
0000
FF80
0000
FF80
0000
0000
2A00
2A00
2A00
2A00
2A00
ENDCHAR
STARTCHAR oslash
ENCODING 248
SWIDTH 832 0
DWIDTH 23 0
BBX 21 26 1 -3
BITMAP
000100
000340
007AA0
038EA0
0C71E0
138E40
247120
698C90
567350
B58D28
AB06A8
AA02A8
AA02A8
AA02A8
AA02A8
AA02A8
A505A8
56F950
5B06D0
2CF9A0
130760
08F880
370300
29FC00
0A0000
040000
ENDCHAR
STARTCHAR ugrave
ENCODING 249
SWIDTH 795 0
DWIDTH 22 0
BBX 20 30 1 -1
BITMAP
100000
180000
660000
198000
067000
019000
006000
000000
000000
AA0550
AA0550
AA0550
AA0550
AA0550
AA0550
AA0550
AA0550
AA0550
AA0550
AA0550
AA0550
AA0550
AD0950
54F2B0
5B0CA0
2DF960
3606C0
19F980
060600
01F800
ENDCHAR
STARTCHAR uacute
ENCODING 250
SWIDTH 795 0
DWIDTH 22 0
BBX 20 30 1 -1
BITMAP
000080
0001C0
000660
001980
006600
009800
006000
000000
000000
AA0550
AA0550
AA0550
AA0550
AA0550
AA0550
AA0550
AA0550
AA0550
AA0550
AA0550
AA0550
AA0550
AD0950
54F2B0
5B0CA0
2DF960
3606C0
19F980
060600
01F800
ENDCHAR
STARTCHAR ucircumflex
ENCODING 251
SWIDTH 795 0
DWIDTH 22 0
BBX 20 30 1 -1
BITMAP
00D000
00D000
00E800
012800
016800
025400
029400
000000
000000
AA0550
AA0550
AA0550
AA0550
AA0550
AA0550
AA0550
AA0550
AA0550
AA0550
AA0550
AA0550
AA0550
AD0950
54F2B0
5B0CA0
2DF960
3606C0
19F980
060600
01F800
ENDCHAR
STARTCHAR udieresis
ENCODING 252
SWIDTH 795 0
DWIDTH 22 0
BBX 20 26 1 -1
BITMAP
150A80
150A80
150A80
000000
000000
AA0550
AA0550
AA0550
AA0550
AA0550
AA0550
AA0550
AA0550
AA0550
AA0550
AA0550
AA0550
AA0550
AD0950
54F2B0
5B0CA0
2DF960
3606C0
19F980
060600
01F800
ENDCHAR
STARTCHAR yacute
ENCODING 253
SWIDTH 733 0
DWIDTH 21 0
BBX 20 29 0 0
BITMAP
000040
000180
000660
0019C0
006700
009C00
006000
000000
000000
FE0550
550550
2A8AA0
2A8AA0
155540
155540
0AAA80
0AAA80
055500
055500
02AA00
02AA00
015400
015400
015400
015400
015400
015400
015400
015400
ENDCHAR
STARTCHAR thorn
ENCODING 254
SWIDTH 833 0
DWIDTH 23 0
BBX 21 26 1 -3
BITMAP
AA0000
AA0000
AA0000
AA0000
AA0000
AA0000
AAFE00
AA01C0
AAFE60
AA0190
AAFE58
AA01A8
AAFCA8
AA02A8
AA03A8
AAFCA8
AA0128
AAFE50
AA0390
AAFC60
AA01C0
AAFE00
AA0000
AA0000
AA0000
AA0000
ENDCHAR
STARTCHAR ydieresis
ENCODING 255
SWIDTH 733 0
DWIDTH 21 0
BBX 20 25 0 0
BITMAP
0A8A80
0A8A80
0A8A80
000000
000000
FE0550
550550
2A8AA0
2A8AA0
155540
155540
0AAA80
0AAA80
055500
055500
02AA00
02AA00
015400
015400
015400
015400
015400
015400
015400
015400
ENDCHAR
STARTCHAR Amacron
ENCODING 256
SWIDTH 936 0
DWIDTH 26 0
BBX 26 23 0 0
BITMAP
006A8000
006A8000
006B4000
00954000
00B54000
017AA000
014AA000
015AD000
02A55000
02AD5000
05ACA800
0552A800
0552B400
0AD15400
0AA15400
12BF2A00
1540AA00
155FA900
2B605500
2ABFD500
6A805A80
55002A80
D5002FC0
ENDCHAR
STARTCHAR amacron
ENCODING 257
SWIDTH 832 0
DWIDTH 23 0
BBX 21 21 1 -1
BITMAP
03FE00
0E0380
19FCC0
260360
69FCB0
520250
94F950
AB04A8
AA02A8
AA02A8
AA02A8
AA02A8
AA02A8
AD86A8
56FAA8
4B8EA8
24F2A8
138EA8
0C72A8
03CEA8
003000
ENDCHAR
STARTCHAR Abreve
ENCODING 258
SWIDTH 936 0
DWIDTH 26 0
BBX 26 28 0 0
BITMAP
00738000
00258000
001E0000
00000000
00000000
006A8000
006A8000
006B4000
00954000
00B54000
017AA000
014AA000
015AD000
02A55000
02AD5000
05ACA800
0552A800
0552B400
0AD15400
0AA15400
12BF2A00
1540AA00
155FA900
2B605500
2ABFD500
6A805A80
55002A80
D5002FC0
ENDCHAR
STARTCHAR abreve
ENCODING 259
SWIDTH 832 0
DWIDTH 23 0
BBX 21 26 1 -1
BITMAP
029C00
016400
00F800
000000
000000
03FE00
0E0380
19FCC0
260360
69FCB0
520250
94F950
AB04A8
AA02A8
AA02A8
AA02A8
AA02A8
AA02A8
AD86A8
56FAA8
4B8EA8
24F2A8
138EA8
0C72A8
03CEA8
003000
ENDCHAR
STARTCHAR Aogonek
ENCODING 260
SWIDTH 937 0
DWIDTH 26 0
BBX 25 32 1 -9
BITMAP
00550000
00D50000
00EA8000
012A8000
016B4000
01554000
02954000
02B2A000
05AAA000
055AD000
05555000
0A955000
0AA4A800
12A2A800
1542A400
155D5400
2B615400
2ABF6A00
4AC0AA00
557FA900
55005500
AD005500
AA007A80
00700000
00C00000
00B00000
01600000
01400000
01500000
01500000
01500000
01500000
ENDCHAR
STARTCHAR aogonek
ENCODING 261
SWIDTH 832 0
DWIDTH 23 0
BBX 21 29 1 -9
BITMAP
03FE00
0E0380
19FCC0
260360
69FCB0
520250
94F950
AB04A8
AA02A8
AA02A8
AA02A8
AA02A8
AA02A8
AD86A8
56FAA8
4B8EA8
24F2A8
138EA8
0C72A8
03CEA8
00F000
030000
02C000
028000
050000
054000
054000
054000
054000
ENDCHAR
STARTCHAR Cacute
ENCODING 262
SWIDTH 852 0
DWIDTH 24 0
BBX 22 33 1 -1
BITMAP
000020
000070
000198
000660
001980
002600
001800
000000
003800
01E780
061860
09C790
131C48
24E324
6B3CD8
56E360
D580A0
A90080
AA0000
AA0000
AA0000
AA0000
AA0000
AA0000
B50080
54C320
4B7E58
2D81B4
167E6C
1981D8
047E20
0381C0
007E00
ENDCHAR
STARTCHAR cacute
ENCODING 263
SWIDTH 736 0
DWIDTH 21 0
BBX 20 30 1 -1
BITMAP
000040
0001C0
000630
0018C0
006300
00CC00
003000
000000
007000
038E00
0C7180
138E40
247120
698EC0
567300
B58C00
AB0400
AA0000
AA0000
AA0000
AA0000
AA0000
A58400
56F900
5B0680
2CF9A0
130660
08FCC0
070300
01FC00
ENDCHAR
STARTCHAR Cdotaccent
ENCODING 266
SWIDTH 852 0
DWIDTH 24 0
BBX 22 31 1 -1
BITMAP
003E00
000000
003E00
000000
003E00
000000
003800
01E780
061860
09C790
131C48
24E324
6B3CD8
56E360
D580A0
A90080
AA0000
AA0000
AA0000
AA0000
AA0000
AA0000
B50080
54C320
4B7E58
2D81B4
167E6C
1981D8
047E20
0381C0
007E00
ENDCHAR
STARTCHAR cdotaccent
ENCODING 267
SWIDTH 736 0
DWIDTH 21 0
BBX 19 28 1 -1
BITMAP
00F800
000000
00F800
000000
00F800
000000
007000
038E00
0C7180
138E40
247120
698EC0
567300
B58C00
AB0400
AA0000
AA0000
AA0000
AA0000
AA0000
A58400
56F900
5B0680
2CF9A0
130660
08FCC0
070300
01FC00
ENDCHAR
STARTCHAR Ccaron
ENCODING 268
SWIDTH 852 0
DWIDTH 24 0
BBX 22 33 1 -1
BITMAP
00A500
00B500
005A00
004A00
003A00
003400
003400
000000
003800
01E780
061860
09C790
131C48
24E324
6B3CD8
56E360
D580A0
A90080
AA0000
AA0000
AA0000
AA0000
AA0000
AA0000
B50080
54C320
4B7E58
2D81B4
167E6C
1981D8
047E20
0381C0
007E00
ENDCHAR
STARTCHAR ccaron
ENCODING 269
SWIDTH 736 0
DWIDTH 21 0
BBX 19 30 1 -1
BITMAP
03CA00
015400
015400
00AC00
00A800
00A800
005000
000000
007000
038E00
0C7180
138E40
247120
698EC0
567300
B58C00
AB0400
AA0000
AA0000
AA0000
AA0000
AA0000
A58400
56F900
5B0680
2CF9A0
130660
08FCC0
070300
01FC00
ENDCHAR
STARTCHAR Dcaron
ENCODING 270
SWIDTH 886 0
DWIDTH 25 0
BBX 23 32 1 0
BITMAP
01E500
00AA00
00AA00
005600
005400
005400
002800
000000
000000
FFFC00
800380
BFFC60
A003B0
AFFCD8
A80328
ABFCB4
AA0254
AA0156
AA01AA
AA00AA
AA00AA
AA00AA
AA00AA
AA015A
AA0354
ABFE94
A801A8
AFFE48
A00190
BFFF20
8000C0
FFFF00
ENDCHAR
STARTCHAR dcaron
ENCODING 271
SWIDTH 1084 0
DWIDTH 30 0
BBX 28 21 1 0
BITMAP
00000150
FFFC0150
80070150
BFF8C150
A0076050
AFF9B050
A8065190
ABF94830
AA04A9C0
AA02A800
AA02A800
AA02A800
AA02A800
AA06A800
ABFD2800
A8035000
AFFC9000
A0032000
BFFC4000
80018000
FFFE0000
ENDCHAR
STARTCHAR Dcroat
ENCODING 272
SWIDTH 888 0
DWIDTH 25 0
BBX 25 23 -1 0
BITMAP
3FFF0000
2000E000
2FFF1800
2800EC00
2BFF3600
2A00CA00
2AFF2D00
2A809500
2A805580
EAB86A80
2A802A80
EAB82A80
2A802A80
EAB82A80
2A805680
2A80D500
2AFFA500
2A006A00
2BFF9200
28006400
2FFFC800
20003000
3FFFC000
ENDCHAR
STARTCHAR dcroat
ENCODING 273
SWIDTH 833 0
DWIDTH 23 0
BBX 23 20 -1 0
BITMAP
3FFF00
2001C0
2FFE30
2801D8
2BFE6C
2A0194
2AFE52
2A812A
2A80AA
EAB8AA
2A80AA
EAB8AA
2A81AA
2AFF5A
2A00D4
2BFF24
2800C8
2FFF10
200060
3FFF80
ENDCHAR
STARTCHAR Emacron
ENCODING 274
SWIDTH 706 0
DWIDTH 20 0
BBX 18 23 1 0
BITMAP
ABFFC0
AA0000
ABFFC0
AA0000
ABFFC0
AA0000
AA0000
AA0000
AA0000
ABF800
AA0000
ABF800
AA0000
ABF800
AA0000
AA0000
AA0000
AA0000
ABFFC0
AA0000
ABFFC0
AA0000
ABFFC0
ENDCHAR
STARTCHAR emacron
ENCODING 275
SWIDTH 666 0
DWIDTH 19 0
BBX 17 20 1 0
BITMAP
ABFF80
AA0000
ABFF80
AA0000
ABFF80
AA0000
AA0000
AA0000
ABFF00
AA0000
ABFF00
AA0000
ABFF00
AA0000
AA0000
ABFF80
AA0000
ABFF80
AA0000
ABFF80
ENDCHAR
STARTCHAR Ebreve
ENCODING 276
SWIDTH 706 0
DWIDTH 20 0
BBX 18 28 1 0
BITMAP
073800
069000
01E000
000000
000000
ABFFC0
AA0000
ABFFC0
AA0000
ABFFC0
AA0000
AA0000
AA0000
AA0000
ABF800
AA0000
ABF800
AA0000
ABF800
AA0000
AA0000
AA0000
AA0000
ABFFC0
AA0000
ABFFC0
AA0000
ABFFC0
ENDCHAR
STARTCHAR ebreve
ENCODING 277
SWIDTH 666 0
DWIDTH 19 0
BBX 17 25 1 0
BITMAP
0A3800
05D000
03E000
000000
000000
ABFF80
AA0000
ABFF80
AA0000
ABFF80
AA0000
AA0000
AA0000
ABFF00
AA0000
ABFF00
AA0000
ABFF00
AA0000
AA0000
ABFF80
AA0000
ABFF80
AA0000
ABFF80
ENDCHAR
STARTCHAR Edotaccent
ENCODING 278
SWIDTH 706 0
DWIDTH 20 0
BBX 18 30 1 0
BITMAP
03E000
000000
03E000
000000
03E000
000000
000000
ABFFC0
AA0000
ABFFC0
AA0000
ABFFC0
AA0000
AA0000
AA0000
AA0000
ABF800
AA0000
ABF800
AA0000
ABF800
AA0000
AA0000
AA0000
AA0000
ABFFC0
AA0000
ABFFC0
AA0000
ABFFC0
ENDCHAR
STARTCHAR edotaccent
ENCODING 279
SWIDTH 666 0
DWIDTH 19 0
BBX 17 27 1 0
BITMAP
03E000
000000
03E000
000000
03E000
000000
000000
ABFF80
AA0000
ABFF80
AA0000
ABFF80
AA0000
AA0000
AA0000
ABFF00
AA0000
ABFF00
AA0000
ABFF00
AA0000
AA0000
ABFF80
AA0000
ABFF80
AA0000
ABFF80
ENDCHAR
STARTCHAR Eogonek
ENCODING 280
SWIDTH 706 0
DWIDTH 20 0
BBX 18 31 1 -8
BITMAP
ABFFC0
AA0000
ABFFC0
AA0000
ABFFC0
AA0000
AA0000
AA0000
AA0000
ABF800
AA0000
ABF800
AA0000
ABF800
AA0000
AA0000
AA0000
AA0000
ABFFC0
AA0000
ABFFC0
AA0000
ABFFC0
000600
0004C0
000500
000500
000540
000540
000540
000540
ENDCHAR
STARTCHAR eogonek
ENCODING 281
SWIDTH 666 0
DWIDTH 19 0
BBX 17 28 1 -8
BITMAP
ABFF80
AA0000
ABFF80
AA0000
ABFF80
AA0000
AA0000
AA0000
ABFF00
AA0000
ABFF00
AA0000
ABFF00
AA0000
AA0000
ABFF80
AA0000
ABFF80
AA0000
ABFF80
000C00
000980
000A00
000A00
000A80
000A80
000A80
000A80
ENDCHAR
STARTCHAR Ecaron
ENCODING 282
SWIDTH 706 0
DWIDTH 20 0
BBX 18 32 1 0
BITMAP
052800
056800
02D000
025000
02B000
01A000
01E000
000000
000000
ABFFC0
AA0000
ABFFC0
AA0000
ABFFC0
AA0000
AA0000
AA0000
AA0000
ABF800
AA0000
ABF800
AA0000
ABF800
AA0000
AA0000
AA0000
AA0000
ABFFC0
AA0000
ABFFC0
AA0000
ABFFC0
ENDCHAR
STARTCHAR ecaron
ENCODING 283
SWIDTH 666 0
DWIDTH 19 0
BBX 17 29 1 0
BITMAP
0A7800
055000
055000
04A000
02A000
032000
014000
000000
000000
ABFF80
AA0000
ABFF80
AA0000
ABFF80
AA0000
AA0000
AA0000
ABFF00
AA0000
ABFF00
AA0000
ABFF00
AA0000
AA0000
ABFF80
AA0000
ABFF80
AA0000
ABFF80
ENDCHAR
STARTCHAR Gbreve
ENCODING 286
SWIDTH 908 0
DWIDTH 25 0
BBX 23 29 1 -1
BITMAP
00E700
004B00
003C00
000000
003800
01E780
061860
09C790
131C48
24E324
6B3CD8
56E360
D580A0
A90080
AA0000
AA0000
AA00AA
AA00AA
AA00AA
AA00AA
A500AA
5480AA
5A7FAA
2D80AA
367FAA
1980AA
0C7FAA
0380AA
00FF00
ENDCHAR
STARTCHAR gbreve
ENCODING 287
SWIDTH 827 0
DWIDTH 23 0
BBX 21 26 1 -1
BITMAP
028A00
017400
00F800
000000
007000
038E00
0C7180
138E40
247120
698EC0
567300
B58C00
AB0400
AA0000
AA0000
AA02A8
AA02A8
AA02A8
A586A8
56FAA8
5B06A8
2CFEA8
1302A8
08FEA8
0702A8
01FC00
ENDCHAR
STARTCHAR Gdotaccent
ENCODING 288
SWIDTH 908 0
DWIDTH 25 0
BBX 23 31 1 -1
BITMAP
003E00
000000
003E00
000000
003E00
000000
003800
01E780
061860
09C790
131C48
24E324
6B3CD8
56E360
D580A0
A90080
AA0000
AA0000
AA00AA
AA00AA
AA00AA
AA00AA
A500AA
5480AA
5A7FAA
2D80AA
367FAA
1980AA
0C7FAA
0380AA
00FF00
ENDCHAR
STARTCHAR gdotaccent
ENCODING 289
SWIDTH 827 0
DWIDTH 23 0
BBX 21 28 1 -1
BITMAP
00F800
000000
00F800
000000
00F800
000000
007000
038E00
0C7180
138E40
247120
698EC0
567300
B58C00
AB0400
AA0000
AA0000
AA02A8
AA02A8
AA02A8
A586A8
56FAA8
5B06A8
2CFEA8
1302A8
08FEA8
0702A8
01FC00
ENDCHAR
STARTCHAR Gcommaaccent
ENCODING 290
SWIDTH 908 0
DWIDTH 25 0
BBX 23 35 1 -11
BITMAP
003800
01E780
061860
09C790
131C48
24E324
6B3CD8
56E360
D580A0
A90080
AA0000
AA0000
AA00AA
AA00AA
AA00AA
AA00AA
A500AA
5480AA
5A7FAA
2D80AA
367FAA
1980AA
0C7FAA
0380AA
00FF00
000000
002C00
002C00
002C00
002C00
001400
001400
002400
000C00
003000
ENDCHAR
STARTCHAR gcommaaccent
ENCODING 291
SWIDTH 827 0
DWIDTH 23 0
BBX 21 22 1 -1
BITMAP
007000
038E00
0C7180
138E40
247120
698EC0
567300
B58C00
AB0400
AA0000
AA0000
AA02A8
AA02A8
AA02A8
A586A8
56FAA8
5B06A8
2CFEA8
1302A8
08FEA8
0702A8
01FC00
ENDCHAR
STARTCHAR Hcircumflex
ENCODING 292
SWIDTH 901 0
DWIDTH 25 0
BBX 23 32 1 0
BITMAP
002800
007400
005400
005400
00AA00
00AA00
01ED00
000000
000000
AA00AA
AA00AA
AA00AA
AA00AA
AA00AA
AA00AA
AA00AA
AA00AA
AA00AA
ABFFAA
AA00AA
ABFFAA
AA00AA
ABFFAA
AA00AA
AA00AA
AA00AA
AA00AA
AA00AA
AA00AA
AA00AA
AA00AA
AA00AA
ENDCHAR
STARTCHAR hcircumflex
ENCODING 293
SWIDTH 830 0
DWIDTH 23 0
BBX 21 29 1 0
BITMAP
005000
006800
00A800
00AC00
015400
015400
03DA00
000000
000000
AA02A8
AA02A8
AA02A8
AA02A8
AA02A8
AA02A8
AA02A8
ABFEA8
AA02A8
ABFEA8
AA02A8
ABFEA8
AA02A8
AA02A8
AA02A8
AA02A8
AA02A8
AA02A8
AA02A8
AA02A8
ENDCHAR
STARTCHAR Hbar
ENCODING 294
SWIDTH 901 0
DWIDTH 25 0
BBX 27 23 -1 0
BITMAP
2A802A80
2A802A80
2A802A80
EABFEAE0
2A802A80
EABFEAE0
2A802A80
2A802A80
2A802A80
2AFFEA80
2A802A80
2AFFEA80
2A802A80
2AFFEA80
2A802A80
2A802A80
2A802A80
2A802A80
2A802A80
2A802A80
2A802A80
2A802A80
2A802A80
ENDCHAR
STARTCHAR hbar
ENCODING 295
SWIDTH 830 0
DWIDTH 23 0
BBX 25 20 -1 0
BITMAP
2A80AA00
2A80AA00
EABFAB80
2A80AA00
EABFAB80
2A80AA00
2A80AA00
2AFFAA00
2A80AA00
2AFFAA00
2A80AA00
2AFFAA00
2A80AA00
2A80AA00
2A80AA00
2A80AA00
2A80AA00
2A80AA00
2A80AA00
2A80AA00
ENDCHAR
STARTCHAR Itilde
ENCODING 296
SWIDTH 338 0
DWIDTH 9 0
BBX 17 30 -4 0
BITMAP
1FF280
600280
4FFC80
900100
A7FF00
000000
000000
055000
055000
055000
055000
055000
055000
055000
055000
055000
055000
055000
055000
055000
055000
055000
055000
055000
055000
055000
055000
055000
055000
055000
ENDCHAR
STARTCHAR itilde
ENCODING 297
SWIDTH 337 0
DWIDTH 9 0
BBX 17 27 -4 0
BITMAP
1FF280
600280
4FFC80
900100
A7FF00
000000
000000
055000
055000
055000
055000
055000
055000
055000
055000
055000
055000
055000
055000
055000
055000
055000
055000
055000
055000
055000
055000
ENDCHAR
STARTCHAR Imacron
ENCODING 298
SWIDTH 338 0
DWIDTH 9 0
BBX 7 23 1 0
BITMAP
AA
AA
AA
AA
AA
AA
AA
AA
AA
AA
AA
AA
AA
AA
AA
AA
AA
AA
AA
AA
AA
AA
AA
ENDCHAR
STARTCHAR imacron
ENCODING 299
SWIDTH 337 0
DWIDTH 9 0
BBX 7 20 1 0
BITMAP
AA
AA
AA
AA
AA
AA
AA
AA
AA
AA
AA
AA
AA
AA
AA
AA
AA
AA
AA
AA
ENDCHAR
STARTCHAR Ibreve
ENCODING 300
SWIDTH 338 0
DWIDTH 9 0
BBX 8 28 1 0
BITMAP
E5
9A
7C
00
00
AA
AA
AA
AA
AA
AA
AA
AA
AA
AA
AA
AA
AA
AA
AA
AA
AA
AA
AA
AA
AA
AA
AA
ENDCHAR
STARTCHAR ibreve
ENCODING 301
SWIDTH 337 0
DWIDTH 9 0
BBX 8 25 1 0
BITMAP
E5
9A
7C
00
00
AA
AA
AA
AA
AA
AA
AA
AA
AA
AA
AA
AA
AA
AA
AA
AA
AA
AA
AA
AA
ENDCHAR
STARTCHAR Iogonek
ENCODING 302
SWIDTH 338 0
DWIDTH 9 0
BBX 7 31 1 -8
BITMAP
AA
AA
AA
AA
AA
AA
AA
AA
AA
AA
AA
AA
AA
AA
AA
AA
AA
AA
AA
AA
AA
AA
AE
18
36
2C
28
2A
2A
2A
2A
ENDCHAR
STARTCHAR iogonek
ENCODING 303
SWIDTH 337 0
DWIDTH 9 0
BBX 7 28 1 -8
BITMAP
AA
AA
AA
AA
AA
AA
AA
AA
AA
AA
AA
AA
AA
AA
AA
AA
AA
AA
AA
AE
18
16
2C
28
2A
2A
2A
2A
ENDCHAR
STARTCHAR Idotaccent
ENCODING 304
SWIDTH 338 0
DWIDTH 9 0
BBX 7 30 1 0
BITMAP
7C
00
7C
00
7C
00
00
AA
AA
AA
AA
AA
AA
AA
AA
AA
AA
AA
AA
AA
AA
AA
AA
AA
AA
AA
AA
AA
AA
AA
ENDCHAR
STARTCHAR dotlessi
ENCODING 305
SWIDTH 337 0
DWIDTH 9 0
BBX 7 20 1 0
BITMAP
AA
AA
AA
AA
AA
AA
AA
AA
AA
AA
AA
AA
AA
AA
AA
AA
AA
AA
AA
AA
ENDCHAR
STARTCHAR IJ
ENCODING 306
SWIDTH 774 0
DWIDTH 22 0
BBX 19 24 1 -1
BITMAP
AA06A0
AA06A0
AA06A0
AA06A0
AA06A0
AA06A0
AA06A0
AA06A0
AA06A0
AA06A0
AA06A0
AA06A0
AA06A0
AA06A0
AA06A0
AA0AA0
AA0AA0
AA72A0
AA05A0
AA7940
AA06C0
AA7980
AA0700
007C00
ENDCHAR
STARTCHAR ij
ENCODING 307
SWIDTH 729 0
DWIDTH 20 0
BBX 18 23 1 -3
BITMAP
AA1540
AA1540
AA1540
AA1540
AA1540
AA1540
AA1540
AA1540
AA1540
AA1540
AA1540
AA1540
AA1540
AA1540
AA1540
AA1540
AA6D40
AA1AC0
AA6680
AA0D00
007200
000C00
007000
ENDCHAR
STARTCHAR Jcircumflex
ENCODING 308
SWIDTH 434 0
DWIDTH 12 0
BBX 11 33 1 -1
BITMAP
0500
0C80
0A80
0A80
1540
1540
2DE0
0000
0000
1540
1540
1540
1540
1540
1540
1540
1540
1540
1540
1540
1540
1540
1540
1540
1540
1540
EB40
1A80
E480
0D00
F200
0C00
F000
ENDCHAR
STARTCHAR jcircumflex
ENCODING 309
SWIDTH 393 0
DWIDTH 11 0
BBX 10 32 1 -3
BITMAP
0A00
1A00
1500
3500
2E80
2A80
52C0
0000
0000
2A80
2A80
2A80
2A80
2A80
2A80
2A80
2A80
2A80
2A80
2A80
2A80
2A80
2A80
2A80
6A80
D500
2500
CB00
3200
CC00
3800
E000
ENDCHAR
STARTCHAR Kcommaaccent
ENCODING 310
SWIDTH 815 0
DWIDTH 23 0
BBX 21 33 1 -10
BITMAP
AA06A8
AA0548
AA0D50
AA0A90
AA1AA0
AA1520
AA2540
AA2AC0
AA4A80
AA5580
AA9500
AAAB00
AAA500
AA5500
AA5280
AA2A80
AA2D40
AA1540
AA16A0
AA0AA0
AA0B50
AA0550
AA07A8
000000
00A800
00A800
00A800
00A800
002800
002800
00C800
001000
00E000
ENDCHAR
STARTCHAR kcommaaccent
ENCODING 311
SWIDTH 801 0
DWIDTH 22 0
BBX 21 30 1 -10
BITMAP
AA05A8
AA0550
AA0AD0
AA1AA0
AA1520
AA2540
AA2AC0
AA5A80
AA5500
AAA500
AAAB00
AAD500
AA5680
AA2A80
AA2940
AA1540
AA16A0
AA0AB0
AA0950
AA0578
000000
00A800
00A800
00A800
00A800
002800
002800
00C800
003000
00E000
ENDCHAR
STARTCHAR kgreenlandic
ENCODING 312
SWIDTH 801 0
DWIDTH 22 0
BBX 21 20 1 0
BITMAP
AA05A8
AA0550
AA0AD0
AA1AA0
AA1520
AA2540
AA2AC0
AA5A80
AA5500
AAA500
AAAB00
AAD500
AA5680
AA2A80
AA2940
AA1540
AA16A0
AA0AB0
AA0950
AA0578
ENDCHAR
STARTCHAR Lacute
ENCODING 313
SWIDTH 604 0
DWIDTH 17 0
BBX 17 32 1 0
BITMAP
000200
000E00
003980
00E600
071800
026000
018000
000000
000000
AA0000
AA0000
AA0000
AA0000
AA0000
AA0000
AA0000
AA0000
AA0000
AA0000
AA0000
AA0000
AA0000
AA0000
AA0000
AA0000
AA0000
AA0000
ABFE00
AA0000
ABFE00
AA0000
ABFE00
ENDCHAR
STARTCHAR lacute
ENCODING 314
SWIDTH 583 0
DWIDTH 16 0
BBX 14 29 1 0
BITMAP
0020
00E0
0398
0E60
7980
2600
1800
0000
0000
AA00
AA00
AA00
AA00
AA00
AA00
AA00
AA00
AA00
AA00
AA00
AA00
AA00
AA00
AA00
ABFC
AA00
ABFC
AA00
ABFC
ENDCHAR
STARTCHAR Lcommaaccent
ENCODING 315
SWIDTH 604 0
DWIDTH 17 0
BBX 15 33 1 -10
BITMAP
AA00
AA00
AA00
AA00
AA00
AA00
AA00
AA00
AA00
AA00
AA00
AA00
AA00
AA00
AA00
AA00
AA00
AA00
ABFE
AA00
ABFE
AA00
ABFE
0000
0540
0540
0540
0540
0140
0140
0640
0180
0700
ENDCHAR
STARTCHAR lcommaaccent
ENCODING 316
SWIDTH 583 0
DWIDTH 16 0
BBX 14 30 1 -10
BITMAP
AA00
AA00
AA00
AA00
AA00
AA00
AA00
AA00
AA00
AA00
AA00
AA00
AA00
AA00
AA00
ABFC
AA00
ABFC
AA00
ABFC
0000
0540
0540
0540
0540
0140
0340
0680
0180
0600
ENDCHAR
STARTCHAR Lcaron
ENCODING 317
SWIDTH 856 0
DWIDTH 24 0
BBX 22 24 1 0
BITMAP
000054
AA0054
AA0054
AA0054
AA0014
AA0014
AA0064
AA0008
AA0070
AA0000
AA0000
AA0000
AA0000
AA0000
AA0000
AA0000
AA0000
AA0000
AA0000
ABFE00
AA0000
ABFE00
AA0000
ABFE00
ENDCHAR
STARTCHAR lcaron
ENCODING 318
SWIDTH 584 0
DWIDTH 16 0
BBX 14 21 1 0
BITMAP
0054
AA54
AA54
AA54
AA14
AA14
AA64
AA08
AA70
AA00
AA00
AA00
AA00
AA00
AA00
AA00
ABFC
AA00
ABFC
AA00
ABFC
ENDCHAR
STARTCHAR Ldot
ENCODING 319
SWIDTH 604 0
DWIDTH 17 0
BBX 15 23 1 0
BITMAP
AA00
AA00
AA00
AA00
AA00
AA00
AA00
AA00
AA7C
AA00
AA7C
AA00
AA7C
AA00
AA00
AA00
AA00
AA00
ABFE
AA00
ABFE
AA00
ABFE
ENDCHAR
STARTCHAR ldot
ENCODING 320
SWIDTH 582 0
DWIDTH 16 0
BBX 14 20 1 0
BITMAP
AA00
AA00
AA00
AA00
AA7C
AA00
AA7C
AA00
AA7C
AA00
AA00
AA00
AA00
AA00
AA00
ABFC
AA00
ABFC
AA00
ABFC
ENDCHAR
STARTCHAR Lslash
ENCODING 321
SWIDTH 604 0
DWIDTH 17 0
BBX 18 23 -2 0
BITMAP
154000
154000
154000
154000
154000
154200
155C00
156200
155C00
354200
D55C00
354000
D54000
354000
D54000
154000
154000
154000
157FC0
154000
157FC0
154000
157FC0
ENDCHAR
STARTCHAR lslash
ENCODING 322
SWIDTH 581 0
DWIDTH 16 0
BBX 17 20 -2 0
BITMAP
154000
154000
154000
154000
154E00
155000
154E00
155000
754E00
955000
754000
954000
754000
954000
154000
157F80
154000
157F80
154000
157F80
ENDCHAR
STARTCHAR Nacute
ENCODING 323
SWIDTH 877 0
DWIDTH 25 0
BBX 22 32 1 0
BITMAP
000020
0000C0
000330
000CE0
003380
004E00
003000
000000
000000
D50154
D28154
AA4154
AD4154
95A154
BAB154
AB5154
A54954
ACA954
AA9554
AB5754
AB6AD4
AAAD54
AAD554
AA52B4
AA2AD4
AA2D54
AA15B4
AA1AAC
AA0B54
AA054C
AA04AC
AA02F4
ENDCHAR
STARTCHAR nacute
ENCODING 324
SWIDTH 787 0
DWIDTH 22 0
BBX 20 29 1 0
BITMAP
000080
0001C0
000660
001980
006600
009800
006000
000000
000000
D50150
D28150
AAC150
AD4150
952150
B2A150
AAD150
AD5950
AD2950
AAA550
AAD550
A95B50
A92A50
A8A550
A8D5D0
A85A90
A82A50
A82550
A815B0
A81AB0
ENDCHAR
STARTCHAR Ncommaaccent
ENCODING 325
SWIDTH 877 0
DWIDTH 25 0
BBX 22 33 1 -10
BITMAP
D50154
D28154
AA4154
AD4154
95A154
BAB154
AB5154
A54954
ACA954
AA9554
AB5754
AB6AD4
AAAD54
AAD554
AA52B4
AA2AD4
AA2D54
AA15B4
AA1AAC
AA0B54
AA054C
AA04AC
AA02F4
000000
005400
005400
005400
005400
001400
003400
006800
001800
006000
ENDCHAR
STARTCHAR ncommaaccent
ENCODING 326
SWIDTH 787 0
DWIDTH 22 0
BBX 20 30 1 -10
BITMAP
D50150
D28150
AAC150
AD4150
952150
B2A150
AAD150
AD5950
AD2950
AAA550
AAD550
A95B50
A92A50
A8A550
A8D5D0
A85A90
A82A50
A82550
A815B0
A81AB0
000000
00B000
00B000
00B000
00B000
003000
005000
009000
003000
00C000
ENDCHAR
STARTCHAR Ncaron
ENCODING 327
SWIDTH 877 0
DWIDTH 25 0
BBX 22 32 1 0
BITMAP
014A00
00AA00
00BA00
009400
005400
006800
006800
000000
000000
D50154
D28154
AA4154
AD4154
95A154
BAB154
AB5154
A54954
ACA954
AA9554
AB5754
AB6AD4
AAAD54
AAD554
AA52B4
AA2AD4
AA2D54
AA15B4
AA1AAC
AA0B54
AA054C
AA04AC
AA02F4
ENDCHAR
STARTCHAR ncaron
ENCODING 328
SWIDTH 787 0
DWIDTH 22 0
BBX 20 29 1 0
BITMAP
029400
029400
016800
012800
01D800
00D000
00D000
000000
000000
D50150
D28150
AAC150
AD4150
952150
B2A150
AAD150
AD5950
AD2950
AAA550
AAD550
A95B50
A92A50
A8A550
A8D5D0
A85A90
A82A50
A82550
A815B0
A81AB0
ENDCHAR
STARTCHAR Eng
ENCODING 330
SWIDTH 874 0
DWIDTH 24 0
BBX 22 32 1 -9
BITMAP
D50154
D28154
AA4154
A54154
94A154
AA9154
AB5154
A56954
AEA554
AAD554
A95B54
ABAB54
AAB554
AA5754
AA4B54
AA2954
AA3554
AA1754
AA0B54
AA0D54
AA0554
AA0354
AA0354
000154
000154
000ED4
0001A8
000E68
0001D0
000F20
0000C0
000F00
ENDCHAR
STARTCHAR eng
ENCODING 331
SWIDTH 691 0
DWIDTH 19 0
BBX 17 28 1 -8
BITMAP
D50A80
D28A80
AACA80
AD4A80
95AA80
B2AA80
AADA80
AD5A80
AD2A80
AAAA80
AADA80
A95A80
A92A80
A8AA80
A8DA80
A85A80
A82A80
A82A80
A81A80
A81A80
000A80
000A80
001A80
002500
001900
002200
001C00
002000
ENDCHAR
STARTCHAR Omacron
ENCODING 332
SWIDTH 933 0
DWIDTH 26 0
BBX 24 25 1 -1
BITMAP
001800
01E780
061860
09C390
131C48
24E334
6B3CD2
56E76A
D581AD
A900D5
AA0055
AA0055
AA0055
AA0055
AA0055
AA0055
B500B5
54C12A
4B7E5A
2D81B4
167E6C
198198
047E20
0381C0
007E00
ENDCHAR
STARTCHAR omacron
ENCODING 333
SWIDTH 833 0
DWIDTH 23 0
BBX 21 22 1 -1
BITMAP
007800
038E00
0C7180
138E40
247120
698E90
567350
B58D28
AB06A8
AA02A8
AA02A8
AA03A8
AA02A8
AA02A8
A585A8
56F950
5B06D0
2CF9A0
130760
08FCC0
070300
01FC00
ENDCHAR
STARTCHAR Obreve
ENCODING 334
SWIDTH 933 0
DWIDTH 26 0
BBX 24 29 1 -1
BITMAP
00E700
004B00
003C00
000000
001800
01E780
061860
09C390
131C48
24E334
6B3CD2
56E76A
D581AD
A900D5
AA0055
AA0055
AA0055
AA0055
AA0055
AA0055
B500B5
54C12A
4B7E5A
2D81B4
167E6C
198198
047E20
0381C0
007E00
ENDCHAR
STARTCHAR obreve
ENCODING 335
SWIDTH 833 0
DWIDTH 23 0
BBX 21 26 1 -1
BITMAP
028A00
017400
00F800
000000
007800
038E00
0C7180
138E40
247120
698E90
567350
B58D28
AB06A8
AA02A8
AA02A8
AA03A8
AA02A8
AA02A8
A585A8
56F950
5B06D0
2CF9A0
130760
08FCC0
070300
01FC00
ENDCHAR
STARTCHAR Ohungarumlaut
ENCODING 336
SWIDTH 933 0
DWIDTH 26 0
BBX 26 33 1 -1
BITMAP
00040100
000E0380
00330CC0
00CC3380
0330CC00
04C13000
0300C000
00000000
00180000
01E78000
06186000
09C39000
131C4800
24E33400
6B3CD200
56E76A00
D581AD00
A900D500
AA005500
AA005500
AA005500
AA005500
AA005500
AA005500
B500B500
54C12A00
4B7E5A00
2D81B400
167E6C00
19819800
047E2000
0381C000
007E0000
ENDCHAR
STARTCHAR ohungarumlaut
ENCODING 337
SWIDTH 833 0
DWIDTH 23 0
BBX 25 30 1 -1
BITMAP
00080200
00300E00
00C63980
0318E600
0CE79800
13826000
06018000
00000000
00780000
038E0000
0C718000
138E4000
24712000
698E9000
56735000
B58D2800
AB06A800
AA02A800
AA02A800
AA03A800
AA02A800
AA02A800
A585A800
56F95000
5B06D000
2CF9A000
13076000
08FCC000
07030000
01FC0000
ENDCHAR
STARTCHAR OE
ENCODING 338
SWIDTH 1317 0
DWIDTH 37 0
BBX 35 25 1 -1
BITMAP
001C000000
01E395FFE0
061C750000
09C395FFE0
131C550000
24E735FFE0
6B3CD50000
56E7750000
D581B50000
AB00D50000
AA0055FC00
AA00550000
AA0055FC00
AA00550000
AA0055FC00
AA00550000
B500B50000
54C3350000
5A7E550000
2D81B5FFE0
167E750000
198195FFE0
047E350000
0381D5FFE0
007F000000
ENDCHAR
STARTCHAR oe
ENCODING 339
SWIDTH 1174 0
DWIDTH 33 0
BBX 31 22 1 -1
BITMAP
00780000
038EAFFE
0C71A800
138EAFFE
2471A800
698EAFFE
5673A800
B58DA800
AB06A800
AA02AFFC
AA02A800
AA03AFFC
AA02A800
AA02AFFC
A585A800
56F9A800
5B06AFFE
2CF9A800
1307AFFE
08FCA800
0703AFFE
01FC0000
ENDCHAR
STARTCHAR Racute
ENCODING 340
SWIDTH 843 0
DWIDTH 24 0
BBX 22 32 1 0
BITMAP
000400
000E00
003300
00CC00
033000
04C000
030000
000000
000000
FFFE00
8001C0
BFFE60
A00190
AFFE48
A801A8
ABFEA4
AA0354
AA0154
AA0354
AAFEAC
AA01A8
AAFE48
AA0190
AAFE20
AA01C0
AAFF40
AA0BE0
AA0AA0
AA0AA0
AA0550
AA0550
AA0550
ENDCHAR
STARTCHAR Rcommaaccent
ENCODING 342
SWIDTH 843 0
DWIDTH 24 0
BBX 22 33 1 -10
BITMAP
FFFE00
8001C0
BFFE60
A00190
AFFE48
A801A8
ABFEA4
AA0354
AA0154
AA0354
AAFEAC
AA01A8
AAFE48
AA0190
AAFE20
AA01C0
AAFF40
AA0BE0
AA0AA0
AA0AA0
AA0550
AA0550
AA0550
000000
00A800
00A800
00A800
00A800
002800
006800
00D800
003000
00C000
ENDCHAR
STARTCHAR rcommaaccent
ENCODING 343
SWIDTH 831 0
DWIDTH 23 0
BBX 21 30 1 -10
BITMAP
FFFE00
8001C0
BFFE60
A00190
AFFE58
A80128
ABFCA8
AA02A8
AA02A8
AAFCA8
AA0328
AAFC58
AA03B0
AAFE60
AA03C0
AAFD40
AA1540
AA1540
AA0AA0
AA0AA0
000000
015000
015000
015000
015000
005000
005000
019000
002000
01C000
ENDCHAR
STARTCHAR Rcaron
ENCODING 344
SWIDTH 843 0
DWIDTH 24 0
BBX 22 32 1 0
BITMAP
14A000
14A000
0B4000
094000
0AC000
068000
078000
000000
000000
FFFE00
8001C0
BFFE60
A00190
AFFE48
A801A8
ABFEA4
AA0354
AA0154
AA0354
AAFEAC
AA01A8
AAFE48
AA0190
AAFE20
AA01C0
AAFF40
AA0BE0
AA0AA0
AA0AA0
AA0550
AA0550
AA0550
ENDCHAR
STARTCHAR rcaron
ENCODING 345
SWIDTH 831 0
DWIDTH 23 0
BBX 21 29 1 0
BITMAP
014A00
015600
01D400
009400
00A800
006800
005800
000000
000000
FFFE00
8001C0
BFFE60
A00190
AFFE58
A80128
ABFCA8
AA02A8
AA02A8
AAFCA8
AA0328
AAFC58
AA03B0
AAFE60
AA03C0
AAFD40
AA1540
AA1540
AA0AA0
AA0AA0
ENDCHAR
STARTCHAR Sacute
ENCODING 346
SWIDTH 682 0
DWIDTH 19 0
BBX 18 33 1 -1
BITMAP
000100
000700
001CC0
007300
03CC00
013000
00C000
000000
00C000
0E1E00
30E300
6E1C80
59C300
B61C00
A9E000
AA1800
AA0000
ABF000
AC1C00
D7E200
581900
27E500
181280
0FEA80
002A80
002A80
0FEA80
181280
47E500
B81900
C7E200
300C00
0FF000
ENDCHAR
STARTCHAR sacute
ENCODING 347
SWIDTH 683 0
DWIDTH 19 0
BBX 18 29 1 0
BITMAP
000100
000700
001CC0
007300
03CC00
013000
00C000
000000
000000
0FF800
380700
67F980
580600
A7F900
A80400
A80000
AC0000
B3FC00
5C0600
63F900
1E0480
01FA80
000A80
100A80
1F7A80
608480
9F7900
618600
1FF800
ENDCHAR
STARTCHAR Scircumflex
ENCODING 348
SWIDTH 682 0
DWIDTH 19 0
BBX 17 33 1 -1
BITMAP
014000
03A000
02A000
02A000
055000
055000
0F6800
000000
00C000
0E1E00
30E300
6E1C80
59C300
B61C00
A9E000
AA1800
AA0000
ABF000
AC1C00
D7E200
581900
27E500
181280
0FEA80
002A80
002A80
0FEA80
181280
47E500
B81900
C7E200
300C00
0FF000
ENDCHAR
STARTCHAR scircumflex
ENCODING 349
SWIDTH 683 0
DWIDTH 19 0
BBX 17 29 1 0
BITMAP
014000
03A000
02A000
02A000
055000
055000
0F6800
000000
000000
0FF800
380700
67F980
580600
A7F900
A80400
A80000
AC0000
B3FC00
5C0600
63F900
1E0480
01FA80
000A80
100A80
1F7A80
608480
9F7900
618600
1FF800
ENDCHAR
STARTCHAR Scedilla
ENCODING 350
SWIDTH 682 0
DWIDTH 19 0
BBX 17 34 1 -10
BITMAP
00C000
0E1E00
30E300
6E1C80
59C300
B61C00
A9E000
AA1800
AA0000
ABF000
AC1C00
D7E200
581900
27E500
181280
0FEA80
002A80
002A80
0FEA80
181280
47E500
B81900
C7E200
300C00
0FF000
034000
0C4000
09C000
0A0000
0A0000
0A0000
08C000
070000
00C000
ENDCHAR
STARTCHAR scedilla
ENCODING 351
SWIDTH 683 0
DWIDTH 19 0
BBX 17 30 1 -10
BITMAP
0FF800
380700
67F980
580600
A7F900
A80400
A80000
AC0000
B3FC00
5C0600
63F900
1E0480
01FA80
000A80
100A80
1F7A80
608480
9F7900
618600
1FF800
014000
034000
0C4000
09C000
0A0000
0A0000
0A0000
08C000
070000
00C000
ENDCHAR
STARTCHAR Scaron
ENCODING 352
SWIDTH 682 0
DWIDTH 19 0
BBX 17 33 1 -1
BITMAP
0D2800
055000
055000
02D000
02A000
01A000
016000
000000
00C000
0E1E00
30E300
6E1C80
59C300
B61C00
A9E000
AA1800
AA0000
ABF000
AC1C00
D7E200
581900
27E500
181280
0FEA80
002A80
002A80
0FEA80
181280
47E500
B81900
C7E200
300C00
0FF000
ENDCHAR
STARTCHAR scaron
ENCODING 353
SWIDTH 683 0
DWIDTH 19 0
BBX 17 29 1 0
BITMAP
0D2800
055000
055000
02D000
02A000
01A000
016000
000000
000000
0FF800
380700
67F980
580600
A7F900
A80400
A80000
AC0000
B3FC00
5C0600
63F900
1E0480
01FA80
000A80
100A80
1F7A80
608480
9F7900
618600
1FF800
ENDCHAR
STARTCHAR Tcommaaccent
ENCODING 354
SWIDTH 591 0
DWIDTH 17 0
BBX 15 32 1 -9
BITMAP
FFFE
0000
FFFE
0000
FFFE
0AA0
0AA0
0AA0
0AA0
0AA0
0AA0
0AA0
0AA0
0AA0
0AA0
0AA0
0AA0
0AA0
0AA0
0AA0
0AA0
0AA0
0AA0
0680
1880
1780
2C00
2800
2C00
1380
1C00
0380
ENDCHAR
STARTCHAR tcommaaccent
ENCODING 355
SWIDTH 588 0
DWIDTH 16 0
BBX 15 29 1 -9
BITMAP
FFFE
0000
FFFE
0000
FFFE
0000
0AA0
0AA0
0AA0
0AA0
0AA0
0AA0
0AA0
0AA0
0AA0
0AA0
0AA0
0AA0
0AA0
0AA0
0680
1880
1780
2C00
2800
2C00
1380
1C00
0380
ENDCHAR
STARTCHAR Tcaron
ENCODING 356
SWIDTH 591 0
DWIDTH 17 0
BBX 15 32 1 0
BITMAP
14A0
1AA0
0B60
0940
0540
0680
0680
0000
0000
FFFE
0000
FFFE
0000
FFFE
0AA0
0AA0
0AA0
0AA0
0AA0
0AA0
0AA0
0AA0
0AA0
0AA0
0AA0
0AA0
0AA0
0AA0
0AA0
0AA0
0AA0
0AA0
ENDCHAR
STARTCHAR tcaron
ENCODING 357
SWIDTH 842 0
DWIDTH 24 0
BBX 22 21 1 0
BITMAP
000054
FFFE54
000054
FFFE54
000014
FFFE24
000068
0AA018
0AA060
0AA000
0AA000
0AA000
0AA000
0AA000
0AA000
0AA000
0AA000
0AA000
0AA000
0AA000
0AA000
ENDCHAR
STARTCHAR Tbar
ENCODING 358
SWIDTH 591 0
DWIDTH 17 0
BBX 15 23 1 0
BITMAP
FFFE
0000
FFFE
0000
FFFE
0AA0
0AA0
0AA0
0AA0
EABE
0AA0
EABE
0AA0
EABE
0AA0
0AA0
0AA0
0AA0
0AA0
0AA0
0AA0
0AA0
0AA0
ENDCHAR
STARTCHAR tbar
ENCODING 359
SWIDTH 588 0
DWIDTH 16 0
BBX 15 20 1 0
BITMAP
FFFE
0000
FFFE
0000
FFFE
0000
0AA0
0AA0
0AA0
0AA0
EABE
0AA0
EABE
0AA0
EABE
0AA0
0AA0
0AA0
0AA0
0AA0
ENDCHAR
STARTCHAR Utilde
ENCODING 360
SWIDTH 905 0
DWIDTH 25 0
BBX 23 31 1 -1
BITMAP
03FE50
0C0050
09FF90
120020
14FFC0
000000
000000
AA00AA
AA00AA
AA00AA
AA00AA
AA00AA
AA00AA
AA00AA
AA00AA
AA00AA
AA00AA
AA00AA
AA00AA
AA00AA
AA00AA
AA00AA
A5012A
548356
5A7C94
29832C
367E48
1B8190
0CFE60
030180
00FE00
ENDCHAR
STARTCHAR utilde
ENCODING 361
SWIDTH 795 0
DWIDTH 22 0
BBX 20 28 1 -1
BITMAP
07FDC0
180140
27FF40
280040
29FF80
000000
000000
AA0550
AA0550
AA0550
AA0550
AA0550
AA0550
AA0550
AA0550
AA0550
AA0550
AA0550
AA0550
AA0550
AD0950
54F2B0
5B0CA0
2DF960
3606C0
19F980
060600
01F800
ENDCHAR
STARTCHAR Umacron
ENCODING 362
SWIDTH 905 0
DWIDTH 25 0
BBX 23 24 1 -1
BITMAP
AA00AA
AA00AA
AA00AA
AA00AA
AA00AA
AA00AA
AA00AA
AA00AA
AA00AA
AA00AA
AA00AA
AA00AA
AA00AA
AA00AA
AA00AA
A5012A
548356
5A7C94
29832C
367E48
1B8190
0CFE60
030180
00FE00
ENDCHAR
STARTCHAR umacron
ENCODING 363
SWIDTH 795 0
DWIDTH 22 0
BBX 20 21 1 -1
BITMAP
AA0550
AA0550
AA0550
AA0550
AA0550
AA0550
AA0550
AA0550
AA0550
AA0550
AA0550
AA0550
AA0550
AD0950
54F2B0
5B0CA0
2DF960
3606C0
19F980
060600
01F800
ENDCHAR
STARTCHAR Ubreve
ENCODING 364
SWIDTH 905 0
DWIDTH 25 0
BBX 23 29 1 -1
BITMAP
01E500
009A00
007C00
000000
000000
AA00AA
AA00AA
AA00AA
AA00AA
AA00AA
AA00AA
AA00AA
AA00AA
AA00AA
AA00AA
AA00AA
AA00AA
AA00AA
AA00AA
AA00AA
A5012A
548356
5A7C94
29832C
367E48
1B8190
0CFE60
030180
00FE00
ENDCHAR
STARTCHAR ubreve
ENCODING 365
SWIDTH 795 0
DWIDTH 22 0
BBX 20 26 1 -1
BITMAP
039C00
012C00
00F000
000000
000000
AA0550
AA0550
AA0550
AA0550
AA0550
AA0550
AA0550
AA0550
AA0550
AA0550
AA0550
AA0550
AA0550
AD0950
54F2B0
5B0CA0
2DF960
3606C0
19F980
060600
01F800
ENDCHAR
STARTCHAR Uring
ENCODING 366
SWIDTH 905 0
DWIDTH 25 0
BBX 23 33 1 -1
BITMAP
003800
005600
00AA00
00C600
00A600
00BA00
007C00
000000
000000
AA00AA
AA00AA
AA00AA
AA00AA
AA00AA
AA00AA
AA00AA
AA00AA
AA00AA
AA00AA
AA00AA
AA00AA
AA00AA
AA00AA
AA00AA
A5012A
548356
5A7C94
29832C
367E48
1B8190
0CFE60
030180
00FE00
ENDCHAR
STARTCHAR uring
ENCODING 367
SWIDTH 795 0
DWIDTH 22 0
BBX 20 30 1 -1
BITMAP
00F000
012800
02D400
029400
029400
016800
00F800
000000
000000
AA0550
AA0550
AA0550
AA0550
AA0550
AA0550
AA0550
AA0550
AA0550
AA0550
AA0550
AA0550
AA0550
AD0950
54F2B0
5B0CA0
2DF960
3606C0
19F980
060600
01F800
ENDCHAR
STARTCHAR Uhungarumlaut
ENCODING 368
SWIDTH 905 0
DWIDTH 25 0
BBX 26 33 1 -1
BITMAP
00040100
00180700
00631CC0
018C7300
0633CC00
0CC13000
0300C000
00000000
00000000
AA00AA00
AA00AA00
AA00AA00
AA00AA00
AA00AA00
AA00AA00
AA00AA00
AA00AA00
AA00AA00
AA00AA00
AA00AA00
AA00AA00
AA00AA00
AA00AA00
AA00AA00
A5012A00
54835600
5A7C9400
29832C00
367E4800
1B819000
0CFE6000
03018000
00FE0000
ENDCHAR
STARTCHAR uhungarumlaut
ENCODING 369
SWIDTH 795 0
DWIDTH 22 0
BBX 24 30 1 -1
BITMAP
001004
00380E
00CC33
0330CE
0CC338
1304C0
0C0300
000000
000000
AA0550
AA0550
AA0550
AA0550
AA0550
AA0550
AA0550
AA0550
AA0550
AA0550
AA0550
AA0550
AA0550
AD0950
54F2B0
5B0CA0
2DF960
3606C0
19F980
060600
01F800
ENDCHAR
STARTCHAR Uogonek
ENCODING 370
SWIDTH 905 0
DWIDTH 25 0
BBX 23 32 1 -9
BITMAP
AA00AA
AA00AA
AA00AA
AA00AA
AA00AA
AA00AA
AA00AA
AA00AA
AA00AA
AA00AA
AA00AA
AA00AA
AA00AA
AA00AA
AA00AA
A5012A
548356
5A7C94
29832C
367E48
1B8190
0CFE60
030180
00FE00
00C000
00B000
00A000
014000
015000
015000
015000
015000
ENDCHAR
STARTCHAR uogonek
ENCODING 371
SWIDTH 794 0
DWIDTH 22 0
BBX 20 29 1 -9
BITMAP
AA0550
AA0550
AA0550
AA0550
AA0550
AA0550
AA0550
AA0550
AA0550
AA0550
AA0550
AA0550
AA0550
AD0950
54F2A0
5B0CA0
2DF940
3606C0
19F980
060600
01F800
010000
026000
028000
028000
02A000
02A000
02A000
02A000
ENDCHAR
STARTCHAR Ycircumflex
ENCODING 374
SWIDTH 789 0
DWIDTH 22 0
BBX 22 32 0 0
BITMAP
006800
006800
006C00
009400
00B400
016A00
014A00
000000
000000
FA0154
5502A8
5502A8
2A8550
2A8550
154AA0
154AA0
0AB540
0A9540
056A80
056A80
02D500
02D500
01EA00
01AA00
00AA00
00AA00
00AA00
00AA00
00AA00
00AA00
00AA00
00AA00
ENDCHAR
STARTCHAR ycircumflex
ENCODING 375
SWIDTH 733 0
DWIDTH 21 0
BBX 20 29 0 0
BITMAP
005000
00D000
00A800
012800
016C00
015400
029600
000000
000000
FE0550
550550
2A8AA0
2A8AA0
155540
155540
0AAA80
0AAA80
055500
055500
02AA00
02AA00
015400
015400
015400
015400
015400
015400
015400
015400
ENDCHAR
STARTCHAR Ydieresis
ENCODING 376
SWIDTH 789 0
DWIDTH 22 0
BBX 22 28 0 0
BITMAP
0A8540
0A8540
0A8540
000000
000000
FA0154
5502A8
5502A8
2A8550
2A8550
154AA0
154AA0
0AB540
0A9540
056A80
056A80
02D500
02D500
01EA00
01AA00
00AA00
00AA00
00AA00
00AA00
00AA00
00AA00
00AA00
00AA00
ENDCHAR
STARTCHAR Zacute
ENCODING 377
SWIDTH 854 0
DWIDTH 24 0
BBX 22 32 1 0
BITMAP
000040
0000C0
000330
000CC0
007300
004C00
003000
000000
000000
FFFFFC
00000C
FFFF90
000064
FFFC98
000324
FFE4C8
001934
00264C
00C9B0
013260
064D80
099300
326400
4C9800
932000
64DFFC
990000
26FFFC
C80000
B7FFFC
480000
FFFFFC
ENDCHAR
STARTCHAR zacute
ENCODING 378
SWIDTH 714 0
DWIDTH 20 0
BBX 18 29 1 0
BITMAP
000100
000380
000CC0
003300
00CC00
013000
00C000
000000
000000
FFD4C0
002540
FFEB40
005A80
FF9580
00AD00
016A00
035200
029400
04AC00
0D6800
0B5000
12B000
15A000
2D4000
6A7FC0
528000
95FFC0
AD0000
FAFFC0
ENDCHAR
STARTCHAR Zdotaccent
ENCODING 379
SWIDTH 854 0
DWIDTH 24 0
BBX 22 30 1 0
BITMAP
00F800
000000
00F800
000000
00F800
000000
000000
FFFFFC
00000C
FFFF90
000064
FFFC98
000324
FFE4C8
001934
00264C
00C9B0
013260
064D80
099300
326400
4C9800
932000
64DFFC
990000
26FFFC
C80000
B7FFFC
480000
FFFFFC
ENDCHAR
STARTCHAR zdotaccent
ENCODING 380
SWIDTH 714 0
DWIDTH 20 0
BBX 18 27 1 0
BITMAP
01F000
000000
01F000
000000
01F000
000000
000000
FFD4C0
002540
FFEB40
005A80
FF9580
00AD00
016A00
035200
029400
04AC00
0D6800
0B5000
12B000
15A000
2D4000
6A7FC0
528000
95FFC0
AD0000
FAFFC0
ENDCHAR
STARTCHAR Zcaron
ENCODING 381
SWIDTH 854 0
DWIDTH 24 0
BBX 22 32 1 0
BITMAP
014A00
015A00
00F400
009400
00A800
006800
007800
000000
000000
FFFFFC
00000C
FFFF90
000064
FFFC98
000324
FFE4C8
001934
00264C
00C9B0
013260
064D80
099300
326400
4C9800
932000
64DFFC
990000
26FFFC
C80000
B7FFFC
480000
FFFFFC
ENDCHAR
STARTCHAR zcaron
ENCODING 382
SWIDTH 714 0
DWIDTH 20 0
BBX 18 29 1 0
BITMAP
052800
05A800
02D000
025000
01D000
01A000
01A000
000000
000000
FFD4C0
002540
FFEB40
005A80
FF9580
00AD00
016A00
035200
029400
04AC00
0D6800
0B5000
12B000
15A000
2D4000
6A7FC0
528000
95FFC0
AD0000
FAFFC0
ENDCHAR
STARTCHAR florin
ENCODING 402
SWIDTH 388 0
DWIDTH 11 0
BBX 9 26 1 -2
BITMAP
0380
0C00
1180
3400
2980
2A00
2A00
2A00
AB80
2A00
AB80
2A00
AB80
2A00
2A00
2A00
2A00
2A00
2A00
2A00
2A00
CA00
1400
E400
1800
E000
ENDCHAR
STARTCHAR uni01C4
ENCODING 452
SWIDTH 1740 0
DWIDTH 49 0
BBX 47 32 1 0
BITMAP
00000000A500
00000000AB00
00000000EA00
000000004A00
000000005400
000000003400
000000002C00
000000000000
000000000000
FFFC007FFFFE
800380000006
BFFC607FFFD8
A003B0000036
AFFCD87FFECC
A803280001B2
ABFCB47FF66C
AA0254000D9A
AA0154001366
AA01AA006CD8
AA00AA009B30
AA00AA0366C0
AA00AA04D980
AA00AA193600
AA015A26CC00
AA035449B000
ABFE94366FFE
A801A84D8000
AFFE48337FFE
A001906C0000
BFFE205FFFFE
8000C0600000
FFFF007FFFFE
ENDCHAR
STARTCHAR uni01C5
ENCODING 453
SWIDTH 1601 0
DWIDTH 45 0
BBX 43 29 1 0
BITMAP
000000029400
000000029400
000000016800
000000012800
000000015800
00000000D000
FFFC0000D000
800380000000
BFFC60000000
A003B07FEAE0
AFFCD80016A0
A803287FF520
ABFCB4002940
AA02547FCA80
AA015400D680
AA01AA00B500
AA00AA012B00
AA00AA015A00
AA00AA02D400
AA00AA06A400
AA015A052800
AA0354095800
ABFE941AD000
A801A816A000
AFFE48253FE0
A001902B4000
BFFE205ABFE0
8000C0548000
FFFF00AD7FE0
ENDCHAR
STARTCHAR Scommaaccent
ENCODING 536
SWIDTH 682 0
DWIDTH 19 0
BBX 17 35 1 -11
BITMAP
00C000
0E1E00
30E300
6E1C80
59C300
B61C00
A9E000
AA1800
AA0000
ABF000
AC1C00
D7E200
581900
27E500
181280
0FEA80
002A80
002A80
0FEA80
181280
47E500
B81900
C7E200
300C00
0FF000
000000
02A000
02A000
02A000
02A000
00A000
01A000
034000
00C000
030000
ENDCHAR
STARTCHAR scommaaccent
ENCODING 537
SWIDTH 683 0
DWIDTH 19 0
BBX 17 31 1 -11
BITMAP
0FF800
380700
67F980
580600
A7F900
A80400
A80000
AC0000
B3FC00
5C0600
63F900
1E0480
01FA80
000A80
100A80
1F7A80
608480
9F7900
618600
1FF800
000000
000000
02A000
02A000
02A000
02A000
00A000
01A000
036000
00C000
030000
ENDCHAR
STARTCHAR uni021A
ENCODING 538
SWIDTH 591 0
DWIDTH 17 0
BBX 15 33 1 -10
BITMAP
FFFE
0000
FFFE
0000
FFFE
0AA0
0AA0
0AA0
0AA0
0AA0
0AA0
0AA0
0AA0
0AA0
0AA0
0AA0
0AA0
0AA0
0AA0
0AA0
0AA0
0AA0
0AA0
0000
0540
0540
0540
0540
0140
0340
0680
0180
0600
ENDCHAR
STARTCHAR uni021B
ENCODING 539
SWIDTH 588 0
DWIDTH 16 0
BBX 15 30 1 -10
BITMAP
FFFE
0000
FFFE
0000
FFFE
0000
0AA0
0AA0
0AA0
0AA0
0AA0
0AA0
0AA0
0AA0
0AA0
0AA0
0AA0
0AA0
0AA0
0AA0
0000
0540
0540
0540
0540
0140
0240
0680
0180
0600
ENDCHAR
STARTCHAR uni0237
ENCODING 567
SWIDTH 393 0
DWIDTH 11 0
BBX 9 23 1 -3
BITMAP
2A80
2A80
2A80
2A80
2A80
2A80
2A80
2A80
2A80
2A80
2A80
2A80
2A80
2A80
2A80
6A80
D500
2500
CB00
3200
CC00
3800
E000
ENDCHAR
STARTCHAR circumflex
ENCODING 710
SWIDTH 376 0
DWIDTH 11 0
BBX 9 7 1 21
BITMAP
1400
3400
2A00
4A00
5B00
5500
A580
ENDCHAR
STARTCHAR caron
ENCODING 711
SWIDTH 362 0
DWIDTH 10 0
BBX 8 7 1 21
BITMAP
A5
B5
5A
4A
3A
34
34
ENDCHAR
STARTCHAR breve
ENCODING 728
SWIDTH 360 0
DWIDTH 10 0
BBX 8 3 1 22
BITMAP
E7
4B
3C
ENDCHAR
STARTCHAR dotaccent
ENCODING 729
SWIDTH 255 0
DWIDTH 7 0
BBX 5 5 1 18
BITMAP
F8
00
F8
00
F8
ENDCHAR
STARTCHAR ring
ENCODING 730
SWIDTH 330 0
DWIDTH 9 0
BBX 7 7 1 22
BITMAP
3C
52
AA
C6
A6
9A
7C
ENDCHAR
STARTCHAR ogonek
ENCODING 731
SWIDTH 250 0
DWIDTH 7 0
BBX 5 9 1 -8
BITMAP
38
40
98
A0
A0
A8
A8
A8
A8
ENDCHAR
STARTCHAR tilde
ENCODING 732
SWIDTH 665 0
DWIDTH 19 0
BBX 17 5 1 16
BITMAP
1FF280
600280
DFFD00
B00100
A7FE00
ENDCHAR
STARTCHAR hungarumlaut
ENCODING 733
SWIDTH 837 0
DWIDTH 23 0
BBX 22 7 1 20
BITMAP
004010
018060
06618C
19C630
6718C0
9C3300
300C00
ENDCHAR
STARTCHAR uni0307
ENCODING 775
SWIDTH 260 0
DWIDTH 7 0
BBX 5 5 1 11
BITMAP
F8
00
F8
00
F8
ENDCHAR
STARTCHAR uni030F
ENCODING 783
SWIDTH 554 0
DWIDTH 16 0
BBX 14 9 1 21
BITMAP
A140
D140
50A0
50A0
28D0
2850
2450
1428
1E2C
ENDCHAR
STARTCHAR uni0311
ENCODING 785
SWIDTH 375 0
DWIDTH 11 0
BBX 8 3 1 22
BITMAP
3E
5D
A3
ENDCHAR
STARTCHAR uni0326
ENCODING 806
SWIDTH 274 0
DWIDTH 8 0
BBX 5 9 1 -11
BITMAP
A8
A8
A8
A8
28
28
C8
10
E0
ENDCHAR
STARTCHAR Omega
ENCODING 937
SWIDTH 92 0
DWIDTH 3 0
BBX 1 1 0 0
BITMAP
00
ENDCHAR
STARTCHAR uni00B5.dup2
ENCODING 956
SWIDTH 802 0
DWIDTH 22 0
BBX 20 23 1 -3
BITMAP
AA0550
AA0550
AA0550
AA0550
AA0550
AA0550
AA0550
AA0550
AA0550
AA0550
AA0550
AA0550
AA0550
AA0D50
AAF250
AA04A0
AAF920
AA0640
AAF980
AA0700
AAF800
AA0000
AA0000
ENDCHAR
STARTCHAR pi
ENCODING 960
SWIDTH 92 0
DWIDTH 3 0
BBX 1 1 0 0
BITMAP
00
ENDCHAR
STARTCHAR endash
ENCODING 8211
SWIDTH 473 0
DWIDTH 13 0
BBX 11 5 1 9
BITMAP
FFE0
0000
FFE0
0000
FFE0
ENDCHAR
STARTCHAR emdash
ENCODING 8212
SWIDTH 615 0
DWIDTH 17 0
BBX 15 5 1 9
BITMAP
FFFE
0000
FFFE
0000
FFFE
ENDCHAR
STARTCHAR quoteleft
ENCODING 8216
SWIDTH 254 0
DWIDTH 7 0
BBX 5 9 1 14
BITMAP
18
60
C8
B0
A0
A8
A8
A8
A8
ENDCHAR
STARTCHAR quoteright
ENCODING 8217
SWIDTH 251 0
DWIDTH 7 0
BBX 5 9 1 14
BITMAP
A8
A8
A8
A8
28
28
C8
10
E0
ENDCHAR
STARTCHAR quotesinglbase
ENCODING 8218
SWIDTH 252 0
DWIDTH 7 0
BBX 5 9 1 -4
BITMAP
A8
A8
A8
A8
28
28
C8
10
E0
ENDCHAR
STARTCHAR quotedblleft
ENCODING 8220
SWIDTH 535 0
DWIDTH 15 0
BBX 13 9 1 14
BITMAP
1818
6060
C8C8
B0B0
A0A0
A8A8
A8A8
A8A8
A8A8
ENDCHAR
STARTCHAR quotedblright
ENCODING 8221
SWIDTH 532 0
DWIDTH 15 0
BBX 13 9 1 14
BITMAP
A8A8
A8A8
A8A8
A8A8
2828
2828
C8C8
1010
E0E0
ENDCHAR
STARTCHAR quotedblbase
ENCODING 8222
SWIDTH 533 0
DWIDTH 15 0
BBX 13 9 1 -4
BITMAP
A8A8
A8A8
A8A8
A8A8
2828
2828
C8D8
1030
E0E0
ENDCHAR
STARTCHAR dagger
ENCODING 8224
SWIDTH 636 0
DWIDTH 18 0
BBX 16 23 1 0
BITMAP
0550
0550
0550
0550
0550
FD5F
0550
FD5F
0550
FD5F
0550
0550
0550
0550
0550
0550
0550
0550
0550
0550
0550
0550
0550
ENDCHAR
STARTCHAR daggerdbl
ENCODING 8225
SWIDTH 648 0
DWIDTH 18 0
BBX 16 23 1 0
BITMAP
0550
0550
0550
0550
0550
FD5F
0550
FD5F
0550
FD5F
0550
0550
0550
0550
FD5F
0550
FD5F
0550
FD5F
0550
0550
0550
0550
ENDCHAR
STARTCHAR bullet
ENCODING 8226
SWIDTH 501 0
DWIDTH 14 0
BBX 12 12 1 4
BITMAP
0F00
30C0
4F20
50B0
A050
A050
A050
A050
90D0
4FA0
2040
1F80
ENDCHAR
STARTCHAR ellipsis
ENCODING 8230
SWIDTH 676 0
DWIDTH 19 0
BBX 17 5 1 0
BITMAP
FBEF80
000000
FBEF80
000000
FBEF80
ENDCHAR
STARTCHAR perthousand
ENCODING 8240
SWIDTH 447 0
DWIDTH 13 0
BBX 11 26 1 -3
BITMAP
02A0
02A0
0540
0540
0540
0540
0A80
0A80
0A80
0A80
1500
1500
1500
1500
2A00
2A00
2A00
2A00
5400
5400
5400
5400
A800
A800
A800
A800
ENDCHAR
STARTCHAR guilsinglleft
ENCODING 8249
SWIDTH 465 0
DWIDTH 13 0
BBX 11 14 1 3
BITMAP
0060
0180
0E60
31C0
CE20
39C0
C600
3B80
CCE0
E300
1CE0
0720
00E0
0020
ENDCHAR
STARTCHAR guilsinglright
ENCODING 8250
SWIDTH 465 0
DWIDTH 13 0
BBX 11 14 1 3
BITMAP
C000
3000
CE00
7180
8E60
7380
0C60
3B80
E660
18E0
E300
9C00
E000
8000
ENDCHAR
STARTCHAR fraction
ENCODING 8260
SWIDTH 447 0
DWIDTH 13 0
BBX 11 26 1 -3
BITMAP
02A0
02A0
0540
0540
0540
0540
0A80
0A80
0A80
0A80
1500
1500
1500
1500
2A00
2A00
2A00
2A00
5400
5400
5400
5400
A800
A800
A800
A800
ENDCHAR
STARTCHAR uni2074
ENCODING 8308
SWIDTH 528 0
DWIDTH 15 0
BBX 13 19 1 4
BITMAP
0D40
0AC0
0A80
1480
1500
2900
2A00
5A60
5460
B460
0800
FFF8
0000
FFF8
0000
FFF8
0060
0060
0060
ENDCHAR
STARTCHAR Euro
ENCODING 8364
SWIDTH 781 0
DWIDTH 22 0
BBX 20 25 1 -1
BITMAP
000600
0078F0
018700
0278F0
048F00
0930E0
1ACF80
15B840
256000
2AC000
2A8000
AAFE00
2A8000
2A8000
AAFE00
2A8000
294000
153040
169FC0
0B6020
0D9FC0
066030
011FC0
00E030
003FC0
ENDCHAR
STARTCHAR trademark
ENCODING 8482
SWIDTH 1503 0
DWIDTH 42 0
BBX 40 17 1 6
BITMAP
FFFE54002D
00005A002B
FFFE6A0053
0000650055
FFFE5500A5
05405280AD
05406A815D
05405D4355
05405562B5
054056A6B5
05405AB575
0540555555
0540555A95
054054AA95
054054A515
0540545515
0540547A15
ENDCHAR
STARTCHAR partialdiff
ENCODING 8706
SWIDTH 108 0
DWIDTH 3 0
BBX 1 1 0 0
BITMAP
00
ENDCHAR
STARTCHAR uni2206
ENCODING 8710
SWIDTH 108 0
DWIDTH 3 0
BBX 1 1 0 0
BITMAP
00
ENDCHAR
STARTCHAR product
ENCODING 8719
SWIDTH 521 0
DWIDTH 15 0
BBX 13 20 1 0
BITMAP
0A80
1A80
1540
2540
2DA0
2AA0
52A0
5550
9550
A968
A9A8
A550
5550
55B0
6AA0
2AA0
2B40
1540
1540
1A80
ENDCHAR
STARTCHAR summation
ENCODING 8721
SWIDTH 108 0
DWIDTH 3 0
BBX 1 1 0 0
BITMAP
00
ENDCHAR
STARTCHAR minus
ENCODING 8722
SWIDTH 555 0
DWIDTH 16 0
BBX 13 5 1 10
BITMAP
FFF8
0000
FFF8
0000
FFF8
ENDCHAR
STARTCHAR radical
ENCODING 8730
SWIDTH 108 0
DWIDTH 3 0
BBX 1 1 0 0
BITMAP
00
ENDCHAR
STARTCHAR infinity
ENCODING 8734
SWIDTH 108 0
DWIDTH 3 0
BBX 1 1 0 0
BITMAP
00
ENDCHAR
STARTCHAR integral
ENCODING 8747
SWIDTH 362 0
DWIDTH 10 0
BBX 8 26 1 -2
BITMAP
03
0C
13
2C
29
2A
2A
2A
2A
2A
2A
2A
2A
2A
2A
2A
2A
2A
2A
2A
2A
D4
34
EC
18
E0
ENDCHAR
STARTCHAR approxequal
ENCODING 8776
SWIDTH 665 0
DWIDTH 19 0
BBX 17 12 1 9
BITMAP
1FF280
600280
DFFD00
B00100
A7FE00
000000
000000
1FF280
600280
DFFD00
B00100
A7FE00
ENDCHAR
STARTCHAR notequal
ENCODING 8800
SWIDTH 473 0
DWIDTH 13 0
BBX 11 26 1 -3
BITMAP
02A0
02A0
0540
0540
0540
0540
FFE0
0A80
FFE0
0A80
FFE0
1500
1500
1500
FFE0
2A00
FFE0
2A00
FFE0
5400
5400
5400
A800
A800
A800
A800
ENDCHAR
STARTCHAR lessequal
ENCODING 8804
SWIDTH 108 0
DWIDTH 3 0
BBX 1 1 0 0
BITMAP
00
ENDCHAR
STARTCHAR greaterequal
ENCODING 8805
SWIDTH 108 0
DWIDTH 3 0
BBX 1 1 0 0
BITMAP
00
ENDCHAR
STARTCHAR lozenge
ENCODING 9674
SWIDTH 521 0
DWIDTH 15 0
BBX 13 20 1 0
BITMAP
0A80
1A80
1540
2540
2DA0
2AA0
52A0
5550
9550
A968
A9A8
A550
5550
55B0
6AA0
2AA0
2B40
1540
1540
1A80
ENDCHAR
STARTCHAR uniF8FF
ENCODING 63743
SWIDTH 108 0
DWIDTH 3 0
BBX 1 1 0 0
BITMAP
00
ENDCHAR
STARTCHAR uniFB01
ENCODING 64257
SWIDTH 962 0
DWIDTH 27 0
BBX 25 20 1 0
BITMAP
ABFF2A80
AA002A80
ABFF2A80
AA002A80
ABFF2A80
AA002A80
AA002A80
AA002A80
ABFE2A80
AA002A80
ABFE2A80
AA002A80
ABFE2A80
AA002A80
AA002A80
AA002A80
AA002A80
AA002A80
AA002A80
AA002A80
ENDCHAR
STARTCHAR uniFB02
ENCODING 64258
SWIDTH 1208 0
DWIDTH 34 0
BBX 32 20 1 0
BITMAP
ABFF2A80
AA002A80
ABFF2A80
AA002A80
ABFF2A80
AA002A80
AA002A80
AA002A80
ABFE2A80
AA002A80
ABFE2A80
AA002A80
ABFE2A80
AA002A80
AA002A80
AA002AFF
AA002A80
AA002AFF
AA002A80
AA002AFF
ENDCHAR
STARTCHAR .notdef
ENCODING -1
SWIDTH 108 0
DWIDTH 3 0
BBX 1 1 0 0
BITMAP
00
ENDCHAR
ENDFONT
